<svg width="22" height="22" viewBox="0 0 22 22" fill="none" xmlns="http://www.w3.org/2000/svg">
<g clip-path="url(#clip0_147_15699)">
<path d="M4.58333 1.83333H5.5V0.916667C5.5 0.673552 5.59658 0.440394 5.76848 0.268485C5.94039 0.0965771 6.17355 0 6.41667 0C6.65978 0 6.89294 0.0965771 7.06485 0.268485C7.23676 0.440394 7.33333 0.673552 7.33333 0.916667V1.83333H14.6667V0.916667C14.6667 0.673552 14.7632 0.440394 14.9352 0.268485C15.1071 0.0965771 15.3402 0 15.5833 0C15.8264 0 16.0596 0.0965771 16.2315 0.268485C16.4034 0.440394 16.5 0.673552 16.5 0.916667V1.83333H17.4167C18.6318 1.83479 19.7967 2.31814 20.656 3.17737C21.5152 4.03659 21.9985 5.20154 22 6.41667V17.4167C21.9985 18.6318 21.5152 19.7967 20.656 20.656C19.7967 21.5152 18.6318 21.9985 17.4167 22H4.58333C3.3682 21.9985 2.20326 21.5152 1.34403 20.656C0.484808 19.7967 0.00145531 18.6318 0 17.4167V6.41667C0.00145531 5.20154 0.484808 4.03659 1.34403 3.17737C2.20326 2.31814 3.3682 1.83479 4.58333 1.83333ZM20.1667 6.41667C20.1667 5.68732 19.8769 4.98785 19.3612 4.47212C18.8455 3.9564 18.146 3.66667 17.4167 3.66667H4.58333C3.85399 3.66667 3.15451 3.9564 2.63879 4.47212C2.12306 4.98785 1.83333 5.68732 1.83333 6.41667V7.33333H20.1667V6.41667ZM4.58333 20.1667H17.4167C18.146 20.1667 18.8455 19.8769 19.3612 19.3612C19.8769 18.8455 20.1667 18.146 20.1667 17.4167V9.16667H1.83333V17.4167C1.83333 18.146 2.12306 18.8455 2.63879 19.3612C3.15451 19.8769 3.85399 20.1667 4.58333 20.1667Z" fill="white"/>
<path d="M11 15.125C10.2406 15.125 9.625 14.5094 9.625 13.75C9.625 12.9906 10.2406 12.375 11 12.375C11.7594 12.375 12.375 12.9906 12.375 13.75C12.375 14.5094 11.7594 15.125 11 15.125Z" fill="white"/>
<path d="M15.582 15.125C14.8226 15.125 14.207 14.5094 14.207 13.75C14.207 12.9906 14.8226 12.375 15.582 12.375C16.3414 12.375 16.957 12.9906 16.957 13.75C16.957 14.5094 16.3414 15.125 15.582 15.125Z" fill="white"/>
<path d="M6.41797 15.125C5.65858 15.125 5.04297 14.5094 5.04297 13.75C5.04297 12.9906 5.65858 12.375 6.41797 12.375C7.17736 12.375 7.79297 12.9906 7.79297 13.75C7.79297 14.5094 7.17736 15.125 6.41797 15.125Z" fill="white"/>
</g>
<defs>
<clipPath id="clip0_147_15699">
<rect width="22" height="22" fill="white" transform="matrix(-1 0 0 1 22 0)"/>
</clipPath>
</defs>
</svg>
