<svg width="49" height="49" viewBox="0 0 49 49" fill="none" xmlns="http://www.w3.org/2000/svg">
<g clip-path="url(#clip0_147_15422)">
<path d="M45.325 4.41602C44.1772 3.45629 42.8323 2.76102 41.3856 2.37958C39.9389 1.99815 38.4259 1.9399 36.9542 2.20897L29.1509 3.62589C27.3493 3.95673 25.7113 4.88361 24.5 6.2576C23.2855 4.88124 21.6428 3.95414 19.8368 3.62589L12.0458 2.20897C10.5741 1.93966 9.06118 1.99715 7.61414 2.37736C6.1671 2.75757 4.82132 3.45121 3.67207 4.40918C2.52282 5.36715 1.59819 6.56603 0.96363 7.92096C0.329072 9.27588 9.96588e-05 10.7537 0 12.2499L0 34.2856C0.000117306 36.676 0.839077 38.9905 2.37065 40.8258C3.90222 42.6611 6.02927 43.9007 8.38104 44.3286L21.215 46.6622C23.3872 47.0569 25.6128 47.0569 27.785 46.6622L40.6292 44.3286C42.9791 43.8986 45.1037 42.658 46.6333 40.823C48.1628 38.9879 49.0003 36.6745 49 34.2856V12.2499C49.0009 10.7543 48.6721 9.27681 48.0369 7.92277C47.4017 6.56872 46.4757 5.37138 45.325 4.41602ZM22.4583 42.7279C22.2868 42.7034 22.1153 42.6748 21.9438 42.6442L9.11196 40.3126C7.70069 40.0558 6.4243 39.3119 5.50533 38.2105C4.58636 37.1091 4.08312 35.72 4.08333 34.2856V12.2499C4.08333 10.6254 4.72864 9.06752 5.8773 7.91886C7.02597 6.7702 8.58388 6.12489 10.2083 6.12489C10.5781 6.12577 10.947 6.15925 11.3108 6.22493L19.11 7.6541C20.0484 7.82581 20.897 8.32064 21.5086 9.05273C22.1203 9.78481 22.4563 10.7079 22.4583 11.6619V42.7279ZM44.9167 34.2856C44.9169 35.72 44.4136 37.1091 43.4947 38.2105C42.5757 39.3119 41.2993 40.0558 39.888 40.3126L27.0562 42.6442C26.8847 42.6748 26.7132 42.7034 26.5417 42.7279V11.6619C26.5415 10.7056 26.877 9.77959 27.4897 9.04531C28.1023 8.31103 28.9532 7.81507 29.8941 7.64389L37.6953 6.21472C38.5788 6.05399 39.4868 6.08947 40.355 6.31867C41.2232 6.54786 42.0304 6.96516 42.7195 7.541C43.4085 8.11685 43.9625 8.83715 44.3422 9.65089C44.7219 10.4646 44.918 11.3519 44.9167 12.2499V34.2856Z" fill="#D95C00"/>
</g>
<defs>
<clipPath id="clip0_147_15422">
<rect width="49" height="49" fill="white"/>
</clipPath>
</defs>
</svg>
