<svg width="41" height="41" viewBox="0 0 41 41" fill="none" xmlns="http://www.w3.org/2000/svg">
<g clip-path="url(#clip0_245_2195)">
<path d="M41 27.3333V41H27.3333C22.2852 41 17.8777 38.241 15.5117 34.1598C16.8254 34.1496 18.1049 34.0044 19.3417 33.7362C21.2226 36.0783 24.1029 37.5833 27.3333 37.5833H37.5833V27.3333C37.5833 24.1029 36.0783 21.2226 33.7362 19.3417C34.0027 18.1049 34.1496 16.8254 34.1598 15.5117C38.241 17.8777 41 22.2852 41 27.3333ZM15.375 30.75H0V15.375C0 6.89654 6.89825 0 15.375 0C23.8517 0 30.75 6.89654 30.75 15.375C30.75 23.8535 23.8517 30.75 15.375 30.75ZM27.3333 15.375C27.3333 8.78254 21.9692 3.41667 15.375 3.41667C8.78083 3.41667 3.41667 8.78254 3.41667 15.375V27.3333H15.375C21.9692 27.3333 27.3333 21.9675 27.3333 15.375ZM15.375 12.8125C13.9605 12.8125 12.8125 13.9605 12.8125 15.375C12.8125 16.7895 13.9605 17.9375 15.375 17.9375C16.7895 17.9375 17.9375 16.7895 17.9375 15.375C17.9375 13.9605 16.7895 12.8125 15.375 12.8125ZM8.54167 12.8125C7.12717 12.8125 5.97917 13.9605 5.97917 15.375C5.97917 16.7895 7.12717 17.9375 8.54167 17.9375C9.95617 17.9375 11.1042 16.7895 11.1042 15.375C11.1042 13.9605 9.95617 12.8125 8.54167 12.8125ZM22.2083 12.8125C20.7938 12.8125 19.6458 13.9605 19.6458 15.375C19.6458 16.7895 20.7938 17.9375 22.2083 17.9375C23.6228 17.9375 24.7708 16.7895 24.7708 15.375C24.7708 13.9605 23.6228 12.8125 22.2083 12.8125Z" fill="#E68238"/>
</g>
<defs>
<clipPath id="clip0_245_2195">
<rect width="41" height="41" fill="white"/>
</clipPath>
</defs>
</svg>
