<svg width="48" height="48" viewBox="0 0 48 48" fill="none" xmlns="http://www.w3.org/2000/svg">
<g clip-path="url(#clip0_147_15379)">
<path d="M13.8767 27.7535C13.8767 28.2793 13.6679 28.7835 13.2961 29.1553C12.9243 29.527 12.4201 29.7359 11.8944 29.7359H9.91196C9.3862 29.7359 8.88197 29.527 8.5102 29.1553C8.13843 28.7835 7.92957 28.2793 7.92957 27.7535C7.92957 27.2277 8.13843 26.7235 8.5102 26.3517C8.88197 25.98 9.3862 25.7711 9.91196 25.7711H11.8944C12.4201 25.7711 12.9243 25.98 13.2961 26.3517C13.6679 26.7235 13.8767 27.2277 13.8767 27.7535ZM21.8063 25.7711H19.8239C19.2982 25.7711 18.7939 25.98 18.4222 26.3517C18.0504 26.7235 17.8415 27.2277 17.8415 27.7535C17.8415 28.2793 18.0504 28.7835 18.4222 29.1553C18.7939 29.527 19.2982 29.7359 19.8239 29.7359H21.8063C22.3321 29.7359 22.8363 29.527 23.2081 29.1553C23.5798 28.7835 23.7887 28.2793 23.7887 27.7535C23.7887 27.2277 23.5798 26.7235 23.2081 26.3517C22.8363 25.98 22.3321 25.7711 21.8063 25.7711ZM11.8944 33.7007H9.91196C9.3862 33.7007 8.88197 33.9095 8.5102 34.2813C8.13843 34.6531 7.92957 35.1573 7.92957 35.6831C7.92957 36.2088 8.13843 36.7131 8.5102 37.0848C8.88197 37.4566 9.3862 37.6655 9.91196 37.6655H11.8944C12.4201 37.6655 12.9243 37.4566 13.2961 37.0848C13.6679 36.7131 13.8767 36.2088 13.8767 35.6831C13.8767 35.1573 13.6679 34.6531 13.2961 34.2813C12.9243 33.9095 12.4201 33.7007 11.8944 33.7007ZM21.8063 33.7007H19.8239C19.2982 33.7007 18.7939 33.9095 18.4222 34.2813C18.0504 34.6531 17.8415 35.1573 17.8415 35.6831C17.8415 36.2088 18.0504 36.7131 18.4222 37.0848C18.7939 37.4566 19.2982 37.6655 19.8239 37.6655H21.8063C22.3321 37.6655 22.8363 37.4566 23.2081 37.0848C23.5798 36.7131 23.7887 36.2088 23.7887 35.6831C23.7887 35.1573 23.5798 34.6531 23.2081 34.2813C22.8363 33.9095 22.3321 33.7007 21.8063 33.7007ZM11.8944 9.91196H9.91196C9.3862 9.91196 8.88197 10.1208 8.5102 10.4926C8.13843 10.8644 7.92957 11.3686 7.92957 11.8944C7.92957 12.4201 8.13843 12.9243 8.5102 13.2961C8.88197 13.6679 9.3862 13.8767 9.91196 13.8767H11.8944C12.4201 13.8767 12.9243 13.6679 13.2961 13.2961C13.6679 12.9243 13.8767 12.4201 13.8767 11.8944C13.8767 11.3686 13.6679 10.8644 13.2961 10.4926C12.9243 10.1208 12.4201 9.91196 11.8944 9.91196ZM21.8063 9.91196H19.8239C19.2982 9.91196 18.7939 10.1208 18.4222 10.4926C18.0504 10.8644 17.8415 11.3686 17.8415 11.8944C17.8415 12.4201 18.0504 12.9243 18.4222 13.2961C18.7939 13.6679 19.2982 13.8767 19.8239 13.8767H21.8063C22.3321 13.8767 22.8363 13.6679 23.2081 13.2961C23.5798 12.9243 23.7887 12.4201 23.7887 11.8944C23.7887 11.3686 23.5798 10.8644 23.2081 10.4926C22.8363 10.1208 22.3321 9.91196 21.8063 9.91196ZM11.8944 17.8415H9.91196C9.3862 17.8415 8.88197 18.0504 8.5102 18.4222C8.13843 18.7939 7.92957 19.2982 7.92957 19.8239C7.92957 20.3497 8.13843 20.8539 8.5102 21.2257C8.88197 21.5975 9.3862 21.8063 9.91196 21.8063H11.8944C12.4201 21.8063 12.9243 21.5975 13.2961 21.2257C13.6679 20.8539 13.8767 20.3497 13.8767 19.8239C13.8767 19.2982 13.6679 18.7939 13.2961 18.4222C12.9243 18.0504 12.4201 17.8415 11.8944 17.8415ZM21.8063 17.8415H19.8239C19.2982 17.8415 18.7939 18.0504 18.4222 18.4222C18.0504 18.7939 17.8415 19.2982 17.8415 19.8239C17.8415 20.3497 18.0504 20.8539 18.4222 21.2257C18.7939 21.5975 19.2982 21.8063 19.8239 21.8063H21.8063C22.3321 21.8063 22.8363 21.5975 23.2081 21.2257C23.5798 20.8539 23.7887 20.3497 23.7887 19.8239C23.7887 19.2982 23.5798 18.7939 23.2081 18.4222C22.8363 18.0504 22.3321 17.8415 21.8063 17.8415ZM47.5774 19.8239V37.6655C47.5743 40.2933 46.529 42.8126 44.6708 44.6708C42.8126 46.529 40.2933 47.5743 37.6655 47.5774H9.91196C7.28411 47.5743 4.76479 46.529 2.90662 44.6708C1.04845 42.8126 0.00314776 40.2933 0 37.6655L0 9.91196C0.00314776 7.28411 1.04845 4.76479 2.90662 2.90662C4.76479 1.04845 7.28411 0.00314776 9.91196 0L21.8063 0C24.4342 0.00314776 26.9535 1.04845 28.8117 2.90662C30.6698 4.76479 31.7151 7.28411 31.7183 9.91196H37.6655C40.2933 9.91511 42.8126 10.9604 44.6708 12.8186C46.529 14.6768 47.5743 17.1961 47.5774 19.8239ZM9.91196 43.6126H27.7535V9.91196C27.7535 8.33467 27.1269 6.82199 26.0116 5.70667C24.8963 4.59136 23.3836 3.96478 21.8063 3.96478H9.91196C8.33467 3.96478 6.82199 4.59136 5.70667 5.70667C4.59136 6.82199 3.96478 8.33467 3.96478 9.91196V37.6655C3.96478 39.2427 4.59136 40.7554 5.70667 41.8707C6.82199 42.9861 8.33467 43.6126 9.91196 43.6126ZM43.6126 19.8239C43.6126 18.2466 42.9861 16.7339 41.8707 15.6186C40.7554 14.5033 39.2427 13.8767 37.6655 13.8767H31.7183V43.6126H37.6655C39.2427 43.6126 40.7554 42.9861 41.8707 41.8707C42.9861 40.7554 43.6126 39.2427 43.6126 37.6655V19.8239ZM37.6655 25.7711C37.2734 25.7711 36.8901 25.8874 36.5641 26.1052C36.2381 26.323 35.984 26.6326 35.834 26.9949C35.6839 27.3571 35.6447 27.7557 35.7212 28.1402C35.7976 28.5248 35.9865 28.878 36.2637 29.1553C36.5409 29.4325 36.8942 29.6213 37.2787 29.6978C37.6633 29.7743 38.0618 29.735 38.4241 29.585C38.7863 29.4349 39.0959 29.1809 39.3138 28.8549C39.5316 28.5289 39.6479 28.1456 39.6479 27.7535C39.6479 27.2277 39.439 26.7235 39.0672 26.3517C38.6954 25.98 38.1912 25.7711 37.6655 25.7711ZM37.6655 33.7007C37.2734 33.7007 36.8901 33.8169 36.5641 34.0348C36.2381 34.2526 35.984 34.5622 35.834 34.9244C35.6839 35.2867 35.6447 35.6853 35.7212 36.0698C35.7976 36.4544 35.9865 36.8076 36.2637 37.0848C36.5409 37.3621 36.8942 37.5509 37.2787 37.6274C37.6633 37.7039 38.0618 37.6646 38.4241 37.5146C38.7863 37.3645 39.0959 37.1104 39.3138 36.7844C39.5316 36.4584 39.6479 36.0751 39.6479 35.6831C39.6479 35.1573 39.439 34.6531 39.0672 34.2813C38.6954 33.9095 38.1912 33.7007 37.6655 33.7007ZM37.6655 17.8415C37.2734 17.8415 36.8901 17.9578 36.5641 18.1756C36.2381 18.3935 35.984 18.7031 35.834 19.0653C35.6839 19.4275 35.6447 19.8261 35.7212 20.2107C35.7976 20.5952 35.9865 20.9484 36.2637 21.2257C36.5409 21.5029 36.8942 21.6917 37.2787 21.7682C37.6633 21.8447 38.0618 21.8055 38.4241 21.6554C38.7863 21.5054 39.0959 21.2513 39.3138 20.9253C39.5316 20.5993 39.6479 20.216 39.6479 19.8239C39.6479 19.2982 39.439 18.7939 39.0672 18.4222C38.6954 18.0504 38.1912 17.8415 37.6655 17.8415Z" fill="#D95C00"/>
</g>
<defs>
<clipPath id="clip0_147_15379">
<rect width="47.5774" height="47.5774" fill="white"/>
</clipPath>
</defs>
</svg>
