<svg width="41" height="41" viewBox="0 0 41 41" fill="none" xmlns="http://www.w3.org/2000/svg">
<g clip-path="url(#clip0_245_2172)">
<path d="M36.7292 28.9631C36.7172 27.8065 36.2525 26.7286 35.4411 25.9496L32.238 22.7567C32.378 22.0255 32.4583 21.2722 32.4583 20.5C32.4583 19.7278 32.378 18.9762 32.238 18.245L35.4018 15.0914C37.1289 13.4992 37.1665 10.5985 35.4787 8.97558L32.0261 5.52304C30.4254 3.82667 27.5127 3.88304 25.9513 5.55892L22.7601 8.76204C22.0273 8.62196 21.2739 8.54167 20.5017 8.54167C19.7295 8.54167 18.9779 8.62196 18.2467 8.76204L15.0931 5.59992C13.5061 3.86083 10.607 3.86596 8.97729 5.52304L5.52475 8.97558C3.81471 10.6122 3.88988 13.4805 5.56063 15.0504L8.76375 18.2433C8.62367 18.9745 8.54338 19.7278 8.54338 20.5C8.54338 21.2722 8.62367 22.0238 8.76375 22.755L5.59992 25.9086C3.87279 27.5008 3.83521 30.4015 5.52304 32.0244L8.97558 35.477C10.6105 37.1853 13.4788 37.1135 15.0504 35.4411L18.2416 32.238C18.9745 32.378 19.7278 32.4583 20.5 32.4583C21.2722 32.4583 22.0238 32.378 22.755 32.238L25.9086 35.4001C27.4973 37.1289 30.4015 37.1665 32.0244 35.477L35.477 32.0244C36.3192 31.1822 36.765 30.082 36.7292 28.9631ZM28.3908 7.94887C28.6727 7.61062 29.3133 7.61404 29.6088 7.93862L33.0614 11.3912C33.4116 11.7448 33.3962 12.2983 33.0101 12.6502L30.9516 14.7036C29.8651 12.7527 28.249 11.1366 26.2981 10.0501L28.3908 7.94887ZM7.94717 12.6075C7.60892 12.3376 7.61233 11.6406 7.93692 11.3912L11.3895 7.93862C11.7516 7.59354 12.2949 7.60208 12.6485 7.98988L14.7019 10.0484C12.751 11.1349 11.1349 12.751 10.0484 14.7019L7.94717 12.6075ZM12.6092 33.0511C12.3256 33.3877 11.685 33.3911 11.3912 33.0614L7.93862 29.6088C7.58842 29.2552 7.60379 28.7017 7.98988 28.3498L10.0484 26.2964C11.1349 28.2473 12.751 29.8634 14.7019 30.9499L12.6092 33.0511ZM11.9583 20.5C11.9583 15.7901 15.7901 11.9583 20.5 11.9583C25.2099 11.9583 29.0417 15.7901 29.0417 20.5C29.0417 25.2099 25.2099 29.0417 20.5 29.0417C15.7901 29.0417 11.9583 25.2099 11.9583 20.5ZM33.0631 29.6088L29.6105 33.0614C29.2706 33.4253 28.7017 33.3911 28.3515 33.0101L26.2981 30.9516C28.249 29.8651 29.8651 28.249 30.9516 26.2981L33.0528 28.3925C33.3911 28.6624 33.3877 29.3594 33.0631 29.6088ZM34.1667 3.41667C34.1667 1.52896 35.6956 0 37.5833 0C39.471 0 41 1.52896 41 3.41667C41 5.30438 39.471 6.83333 37.5833 6.83333C35.6956 6.83333 34.1667 5.30438 34.1667 3.41667ZM0 3.41667C0 1.52896 1.52896 0 3.41667 0C5.30438 0 6.83333 1.52896 6.83333 3.41667C6.83333 5.30438 5.30438 6.83333 3.41667 6.83333C1.52896 6.83333 0 5.30438 0 3.41667ZM41 37.5833C41 39.471 39.471 41 37.5833 41C35.6956 41 34.1667 39.471 34.1667 37.5833C34.1667 35.6956 35.6956 34.1667 37.5833 34.1667C39.471 34.1667 41 35.6956 41 37.5833ZM6.83333 37.5833C6.83333 39.471 5.30438 41 3.41667 41C1.52896 41 0 39.471 0 37.5833C0 35.6956 1.52896 34.1667 3.41667 34.1667C5.30438 34.1667 6.83333 35.6956 6.83333 37.5833Z" fill="#E68238"/>
</g>
<defs>
<clipPath id="clip0_245_2172">
<rect width="41" height="41" fill="white"/>
</clipPath>
</defs>
</svg>
