<svg width="49" height="49" viewBox="0 0 49 49" fill="none" xmlns="http://www.w3.org/2000/svg">
<g clip-path="url(#clip0_147_15412)">
<path d="M38.7917 0H20.4167C14.7878 0 10.2083 4.57946 10.2083 10.2083V12.25H9.1875C4.12213 12.25 0 16.3721 0 21.4375V41.8542C0 45.7925 3.20338 48.998 7.14379 49H38.7917C44.4205 49 49 44.4205 49 38.7917V10.2083C49 4.57946 44.4205 0 38.7917 0ZM10.2083 41.8542C10.2083 43.5426 8.83429 44.9167 7.14583 44.9167C5.45738 44.9167 4.08333 43.5426 4.08333 41.8542V21.4375C4.08333 18.6241 6.37408 16.3333 9.1875 16.3333H10.2083V41.8542ZM44.9167 38.7917C44.9167 42.1686 42.1686 44.9167 38.7917 44.9167H13.6016C14.0426 43.9877 14.2917 42.9505 14.2917 41.8542V10.2083C14.2917 6.83142 17.0398 4.08333 20.4167 4.08333H38.7917C42.1686 4.08333 44.9167 6.83142 44.9167 10.2083V38.7917ZM40.8333 14.2917C40.8333 15.4187 39.9187 16.3333 38.7917 16.3333H32.6667C31.5397 16.3333 30.625 15.4187 30.625 14.2917C30.625 13.1647 31.5397 12.25 32.6667 12.25H38.7917C39.9187 12.25 40.8333 13.1647 40.8333 14.2917ZM40.8333 22.4583C40.8333 23.5853 39.9187 24.5 38.7917 24.5H20.4167C19.2897 24.5 18.375 23.5853 18.375 22.4583C18.375 21.3313 19.2897 20.4167 20.4167 20.4167H38.7917C39.9187 20.4167 40.8333 21.3313 40.8333 22.4583ZM40.8333 30.625C40.8333 31.752 39.9187 32.6667 38.7917 32.6667H20.4167C19.2897 32.6667 18.375 31.752 18.375 30.625C18.375 29.498 19.2897 28.5833 20.4167 28.5833H38.7917C39.9187 28.5833 40.8333 29.498 40.8333 30.625ZM40.8333 38.7917C40.8333 39.9187 39.9187 40.8333 38.7917 40.8333H20.4167C19.2897 40.8333 18.375 39.9187 18.375 38.7917C18.375 37.6647 19.2897 36.75 20.4167 36.75H38.7917C39.9187 36.75 40.8333 37.6647 40.8333 38.7917ZM18.375 14.2917V10.2083C18.375 9.08133 19.2897 8.16667 20.4167 8.16667H24.5C25.627 8.16667 26.5417 9.08133 26.5417 10.2083V14.2917C26.5417 15.4187 25.627 16.3333 24.5 16.3333H20.4167C19.2897 16.3333 18.375 15.4187 18.375 14.2917Z" fill="#D95C00"/>
</g>
<defs>
<clipPath id="clip0_147_15412">
<rect width="49" height="49" fill="white"/>
</clipPath>
</defs>
</svg>
