<svg width="41" height="41" viewBox="0 0 41 41" fill="none" xmlns="http://www.w3.org/2000/svg">
<g clip-path="url(#clip0_245_2215)">
<path d="M37.6816 8.9345L25.0843 2.93313C22.3114 1.27679 18.86 1.2474 16.0592 2.85625L3.32023 8.9345C3.27243 8.95845 3.22286 8.98407 3.17673 9.01138C0.153623 10.7399 -0.895881 14.5919 0.832685 17.6151C1.41862 18.6399 2.2805 19.4796 3.32023 20.0387L6.8343 21.7129V30.0837C6.83638 33.8268 9.27196 37.1337 12.8459 38.2461C15.3331 38.9656 17.912 39.3179 20.501 39.2916C23.0896 39.3206 25.6685 38.9713 28.1561 38.2547C31.73 37.1423 34.1656 33.8354 34.1677 30.0923V21.7094L37.5844 20.0763V34.1666C37.5844 35.11 38.3492 35.8749 39.2927 35.8749C40.2362 35.8749 41.001 35.11 41.001 34.1666V13.6666C41.0124 11.6605 39.4284 9.80735 37.6816 8.9345ZM30.7509 30.0923C30.7518 32.3312 29.2992 34.3116 27.1634 34.9832C24.9976 35.602 22.7533 35.9024 20.5009 35.8749C18.2486 35.9024 16.0042 35.602 13.8384 34.9832C11.7027 34.3115 10.25 32.3312 10.2509 30.0923V23.341L15.9175 26.0401C17.3156 26.8704 18.9125 27.3067 20.5386 27.3026C22.0863 27.3136 23.608 26.9038 24.9409 26.117L30.7509 23.3409V30.0923ZM36.2176 16.9551L23.3334 23.1051C21.5369 24.1512 19.3102 24.1216 17.5421 23.0283L4.93629 17.032C3.53116 16.2743 3.00633 14.521 3.76402 13.1159C4.02028 12.6408 4.40449 12.2469 4.87311 11.9788L17.677 5.86295C19.4741 4.81921 21.6996 4.84876 23.4683 5.93982L36.0655 11.9412C36.992 12.4556 37.5716 13.427 37.5842 14.4866C37.5859 15.4903 37.0691 16.4237 36.2176 16.9551Z" fill="#E68238"/>
</g>
<defs>
<clipPath id="clip0_245_2215">
<rect width="41" height="41" fill="white"/>
</clipPath>
</defs>
</svg>
