<svg width="55" height="55" viewBox="0 0 55 55" fill="none" xmlns="http://www.w3.org/2000/svg">
<circle cx="27.5" cy="27.5" r="27.5" fill="#6FC5EB"/>
<g clip-path="url(#clip0_470_3877)">
<path d="M23.3477 18.2413C22.869 17.7437 22.8852 16.9525 23.3815 16.4738L26.294 13.675C26.7352 13.2088 27.2777 13 27.999 13C28.7202 13 29.1815 13.2463 29.6165 13.6925L32.599 16.4588C33.1052 16.9275 33.1352 17.7188 32.6665 18.225C32.1965 18.7312 31.404 18.76 30.9002 18.2912L29.2502 16.76V20.5C29.2502 21.19 28.6915 21.75 28.0002 21.75C27.309 21.75 26.7502 21.19 26.7502 20.5V16.705L25.1165 18.275C24.6177 18.7537 23.8252 18.7387 23.3477 18.2413ZM16.749 24.25C16.749 24.94 17.3077 25.5 17.999 25.5C18.6902 25.5 19.249 24.94 19.249 24.25V20.51L20.899 22.0413C21.4027 22.51 22.1952 22.4825 22.6652 21.975C23.134 21.4688 23.1052 20.6775 22.5977 20.2088L19.6152 17.4425C18.7202 16.55 17.1477 16.5687 16.2927 17.425L13.3827 20.2237C12.8865 20.7025 12.8702 21.4937 13.349 21.9913C13.8277 22.4875 14.6177 22.5037 15.1165 22.025L16.7502 20.455L16.749 24.25ZM42.599 20.2088L39.6165 17.4425C39.1827 16.9962 38.8165 16.75 37.999 16.75C37.1815 16.75 36.7352 16.9575 36.294 17.425L33.3827 20.225C32.8865 20.7038 32.8702 21.495 33.349 21.9925C33.8265 22.4887 34.6177 22.505 35.1165 22.0262L36.7502 20.4563V24.2513C36.7502 24.9413 37.309 25.5013 38.0002 25.5013C38.6915 25.5013 39.2502 24.9413 39.2502 24.2513V20.5112L40.9002 22.0425C41.404 22.5113 42.1965 22.4838 42.6665 21.9763C43.1352 21.47 43.1065 20.6775 42.599 20.2088ZM39.249 32.375V37.375C39.249 40.4762 36.7252 43 33.624 43H22.374C19.2727 43 16.749 40.4762 16.749 37.375V32.375C16.749 29.2738 19.2727 26.75 22.374 26.75H23.6877C23.9777 25.325 25.2402 24.25 26.749 24.25H29.249C30.759 24.25 32.0202 25.325 32.3102 26.75H33.624C36.7252 26.75 39.249 29.2738 39.249 32.375ZM19.3127 31.75H36.6865C36.3965 30.325 35.134 29.25 33.6252 29.25H22.374C20.864 29.25 19.6027 30.325 19.3127 31.75ZM36.749 34.25H29.249V35.5C29.249 36.19 28.689 36.75 27.999 36.75C27.309 36.75 26.749 36.19 26.749 35.5V34.25H19.249V37.375C19.249 39.1012 20.6477 40.5 22.374 40.5H33.624C35.3502 40.5 36.749 39.1012 36.749 37.375V34.25Z" fill="white"/>
</g>
<defs>
<clipPath id="clip0_470_3877">
<rect width="30" height="30" fill="white" transform="translate(13 13)"/>
</clipPath>
</defs>
</svg>
