<svg width="49" height="49" viewBox="0 0 49 49" fill="none" xmlns="http://www.w3.org/2000/svg">
<g clip-path="url(#clip0_147_15442)">
<path d="M49 46.9583C49 48.0853 48.0853 49 46.9583 49H6.125C2.74808 49 0 46.2519 0 42.875V2.04167C0 0.914667 0.914667 0 2.04167 0C3.16867 0 4.08333 0.914667 4.08333 2.04167V42.875C4.08333 44 5.00004 44.9167 6.125 44.9167H46.9583C48.0853 44.9167 49 45.8313 49 46.9583ZM42.875 10.2083H34.7083C33.5813 10.2083 32.6667 11.123 32.6667 12.25C32.6667 13.377 33.5813 14.2917 34.7083 14.2917H41.9828L32.0664 23.9018C31.2967 24.6735 29.9513 24.6735 29.1815 23.9018C29.0978 23.8201 26.6519 22.0786 26.6519 22.0786C24.3285 19.8879 20.3697 19.9695 18.1545 22.1827L8.79142 31.1946C7.97883 31.9766 7.95433 33.269 8.73629 34.0815C9.1385 34.498 9.67138 34.7083 10.2083 34.7083C10.7188 34.7083 11.2292 34.5185 11.6232 34.1387L21.0149 25.0982C21.7846 24.3265 23.13 24.3265 23.8998 25.0982C23.9835 25.1799 26.4294 26.9214 26.4294 26.9214C28.7548 29.1142 32.7095 29.0366 34.9309 26.8112L44.9146 17.1337V24.498C44.9146 25.625 45.8293 26.5396 46.9563 26.5396C48.0833 26.5396 48.998 25.625 48.998 24.498V16.3313C48.998 12.9544 46.2499 10.2063 42.873 10.2063L42.875 10.2083Z" fill="#D95C00"/>
</g>
<defs>
<clipPath id="clip0_147_15442">
<rect width="49" height="49" fill="white"/>
</clipPath>
</defs>
</svg>
