<svg width="55" height="55" viewBox="0 0 55 55" fill="none" xmlns="http://www.w3.org/2000/svg">
<circle cx="27.5" cy="27.5" r="27.5" fill="#3C94C5"/>
<g clip-path="url(#clip0_416_4394)">
<path d="M26.3367 21.5438C25.6347 21.5438 24.9742 21.2722 24.4766 20.7763L21.3131 17.6239C20.8155 17.128 20.543 16.4698 20.543 15.7702C20.543 15.0707 20.8155 14.4124 21.3131 13.9165C22.338 12.8952 24.0086 12.8952 25.0334 13.9165L26.3367 15.2153L28.967 12.5942C29.9593 11.6024 31.695 11.6024 32.6873 12.5942C33.185 13.0901 33.4575 13.7483 33.4575 14.4479C33.4575 15.1474 33.185 15.8056 32.6873 16.3015L31.5795 17.4143C31.1767 17.8187 30.5191 17.8217 30.1133 17.4202C29.7075 17.0188 29.7046 16.3635 30.1074 15.9591L31.2182 14.8463C31.3248 14.7401 31.384 14.5984 31.384 14.4508C31.384 14.3032 31.3248 14.1615 31.2211 14.0582C31.0079 13.8487 30.6435 13.8487 30.4303 14.0582L27.0654 17.4114C26.6596 17.8158 26.005 17.8158 25.5992 17.4114L23.5642 15.3835C23.3539 15.174 22.9867 15.174 22.7763 15.3835C22.6697 15.4898 22.6134 15.6285 22.6134 15.7761C22.6134 15.9237 22.6697 16.0624 22.7763 16.1687L25.9398 19.3211C26.1501 19.5307 26.5174 19.5307 26.7277 19.3211L27.9866 18.0667C28.3924 17.6652 29.047 17.6623 29.4528 18.0667C29.8586 18.471 29.8586 19.1234 29.4528 19.5278L28.1939 20.7793C27.6963 21.2752 27.0358 21.5467 26.3338 21.5467L26.3367 21.5438Z" fill="white"/>
<path d="M27.0028 26.4731C21.3394 26.4731 16.7305 21.8802 16.7305 16.2366C16.7305 10.5929 21.3364 6 27.0028 6C32.6692 6 37.2752 10.5929 37.2752 16.2366C37.2752 21.8802 32.6662 26.4731 27.0028 26.4731ZM27.0028 8.0662C22.4827 8.0662 18.8039 11.7322 18.8039 16.2366C18.8039 20.7409 22.4827 24.4069 27.0028 24.4069C31.5229 24.4069 35.2017 20.7409 35.2017 16.2366C35.2017 11.7322 31.5229 8.0662 27.0028 8.0662Z" fill="white"/>
<path d="M13.3228 35.9599C10.3874 35.9599 8 33.5808 8 30.6557C8 27.7305 10.3874 25.3514 13.3228 25.3514C16.2582 25.3514 18.6456 27.7305 18.6456 30.6557C18.6456 33.5808 16.2582 35.9599 13.3228 35.9599ZM13.3228 27.4176C11.5308 27.4176 10.0734 28.8699 10.0734 30.6557C10.0734 32.4415 11.5308 33.8937 13.3228 33.8937C15.1148 33.8937 16.5721 32.4415 16.5721 30.6557C16.5721 28.8699 15.1148 27.4176 13.3228 27.4176Z" fill="white"/>
<path d="M9.03671 47.9999C8.46504 47.9999 8 47.5365 8 46.9668V38.947C8 36.1783 10.26 33.9261 13.0414 33.9261C15.0704 33.9261 16.892 35.1304 17.6829 36.993L18.3968 38.6755H22.3037C24.3238 38.6755 25.9648 40.3137 25.9648 42.3238C25.9648 44.3339 24.3208 45.9721 22.3037 45.9721H17.9376C15.6539 45.9721 13.5864 44.6261 12.6652 42.5452L12.3809 41.8987C12.1498 41.3763 12.3868 40.7682 12.9111 40.538C13.4353 40.3078 14.0455 40.5439 14.2766 41.0664L14.5609 41.7128C15.1504 43.047 16.4774 43.9059 17.9376 43.9059H22.3037C23.1805 43.9059 23.8943 43.1945 23.8943 42.3208C23.8943 41.4471 23.1805 40.7358 22.3037 40.7358H17.7096C17.2919 40.7358 16.9157 40.4878 16.7558 40.1041L15.7754 37.7899C15.3103 36.6919 14.2381 35.9835 13.0414 35.9835C11.4063 35.9835 10.0734 37.3088 10.0734 38.9382V46.958C10.0734 47.5277 9.60839 47.9911 9.03671 47.9911V47.9999Z" fill="white"/>
<path d="M40.6783 35.9599C37.7429 35.9599 35.3555 33.5808 35.3555 30.6557C35.3555 27.7305 37.7429 25.3514 40.6783 25.3514C43.6136 25.3514 46.001 27.7305 46.001 30.6557C46.001 33.5808 43.6136 35.9599 40.6783 35.9599ZM40.6783 27.4176C38.8862 27.4176 37.4289 28.8699 37.4289 30.6557C37.4289 32.4415 38.8862 33.8937 40.6783 33.8937C42.4703 33.8937 43.9276 32.4415 43.9276 30.6557C43.9276 28.8699 42.4703 27.4176 40.6783 27.4176Z" fill="white"/>
<path d="M44.9632 48C44.3915 48 43.9265 47.5366 43.9265 46.9669V38.9471C43.9265 37.3177 42.5965 35.9924 40.9585 35.9924C39.7648 35.9924 38.6896 36.7008 38.2246 37.7989L37.2441 40.113C37.0812 40.4938 36.705 40.7447 36.2904 40.7447H31.6962C30.8195 40.7447 30.1056 41.456 30.1056 42.3297C30.1056 43.2035 30.8195 43.9148 31.6962 43.9148H36.0623C37.5226 43.9148 38.8496 43.0529 39.439 41.7217L39.7263 41.0753C39.9574 40.5528 40.5675 40.3196 41.0918 40.5469C41.6161 40.7771 41.8531 41.3881 41.622 41.9077L41.3347 42.5541C40.4135 44.635 38.3431 45.981 36.0623 45.981H31.6962C29.6761 45.981 28.0352 44.3428 28.0352 42.3327C28.0352 40.3226 29.6791 38.6844 31.6962 38.6844H35.6002L36.3141 37.0019C37.1049 35.1394 38.9266 33.9351 40.9556 33.9351C43.734 33.9351 45.997 36.1872 45.997 38.9559V46.9758C45.997 47.5454 45.5319 48.0089 44.9602 48.0089L44.9632 48Z" fill="white"/>
<path d="M36.3895 48C35.8178 48 35.3527 47.5366 35.3527 46.9669V45.9722H17.7375V46.9669C17.7375 47.5366 17.2724 48 16.7008 48C16.1291 48 15.6641 47.5366 15.6641 46.9669V44.9391C15.6641 44.3694 16.1291 43.906 16.7008 43.906H36.3895C36.9611 43.906 37.4262 44.3694 37.4262 44.9391V46.9669C37.4262 47.5366 36.9611 48 36.3895 48Z" fill="white"/>
<path d="M35.6825 25.9212C35.4159 25.9212 35.1523 25.8208 34.9509 25.6172L32.8004 23.4742C32.3946 23.0698 32.3946 22.4175 32.8004 22.0131C33.2062 21.6087 33.8609 21.6087 34.2667 22.0131L36.4171 24.1561C36.8229 24.5605 36.8229 25.2128 36.4171 25.6172C36.2157 25.8179 35.9491 25.9212 35.6855 25.9212H35.6825Z" fill="white"/>
<path d="M18.3172 25.9211C18.0506 25.9211 17.787 25.8207 17.5856 25.6171C17.1798 25.2127 17.1798 24.5604 17.5856 24.156L19.739 22.0101C20.1448 21.6057 20.7994 21.6057 21.2052 22.0101C21.611 22.4145 21.611 23.0668 21.2052 23.4712L19.0518 25.6171C18.8504 25.8178 18.5838 25.9211 18.3202 25.9211H18.3172Z" fill="white"/>
<path d="M23.2711 31.9219C23.1319 31.9219 23.0015 31.8954 22.8771 31.8452C22.7468 31.7891 22.6343 31.7153 22.5395 31.6179C22.4417 31.5205 22.3677 31.4113 22.3114 31.2873C22.264 31.1574 22.2344 31.0246 22.2344 30.8888C22.2344 30.6143 22.344 30.3516 22.5395 30.1598C22.9275 29.7731 23.6176 29.7731 24.0027 30.1598C24.1952 30.3516 24.3078 30.6143 24.3078 30.8888C24.3078 31.0276 24.2811 31.1574 24.2308 31.2873C24.1745 31.4113 24.1005 31.5205 24.0027 31.6179C23.8102 31.8098 23.5466 31.9219 23.2711 31.9219Z" fill="white"/>
<path d="M27.0016 31.9219C26.8623 31.9219 26.732 31.8954 26.6076 31.8452C26.4773 31.7891 26.3647 31.7153 26.2699 31.6179C26.1722 31.5205 26.0981 31.4113 26.0419 31.2873C25.9945 31.1574 25.9648 31.0246 25.9648 30.8888C25.9648 30.6202 26.0744 30.3516 26.2699 30.1598C26.658 29.7731 27.354 29.7731 27.7332 30.1598C27.9257 30.3516 28.0383 30.6202 28.0383 30.8888C28.0383 31.0276 28.0116 31.1574 27.9613 31.2873C27.905 31.4113 27.8309 31.5205 27.7332 31.6179C27.5406 31.8098 27.277 31.9219 27.0016 31.9219Z" fill="white"/>
<path d="M30.732 31.9219C30.4566 31.9219 30.1929 31.8127 30.0004 31.6179C29.9027 31.5205 29.8286 31.4113 29.7723 31.2873C29.7249 31.1574 29.6953 31.0246 29.6953 30.8888C29.6953 30.6202 29.8049 30.3516 30.0004 30.1598C30.3884 29.7731 31.0845 29.7731 31.4666 30.1598C31.6591 30.3516 31.7717 30.6202 31.7717 30.8888C31.7717 31.1574 31.6621 31.426 31.4666 31.6179C31.2711 31.8098 31.0105 31.9219 30.735 31.9219H30.732Z" fill="white"/>
</g>
<defs>
<clipPath id="clip0_416_4394">
<rect width="38" height="42" fill="white" transform="translate(8 6)"/>
</clipPath>
</defs>
</svg>
