<svg width="55" height="55" viewBox="0 0 55 55" fill="none" xmlns="http://www.w3.org/2000/svg">
<circle cx="27.5" cy="27.5" r="27.5" fill="#3C94C5"/>
<g clip-path="url(#clip0_416_4488)">
<path d="M34.0888 21.521C33.3299 21.521 32.5644 21.4237 31.8122 21.2259L25.8078 20.0099C24.2868 19.611 23.2695 18.2491 23.2695 16.6796C23.2695 14.7955 24.7408 13.2617 26.5468 13.2617H33.1245C33.764 13.2617 34.2843 13.7708 34.2843 14.3967C34.2843 15.0225 33.764 15.5316 33.1245 15.5316H26.5468C26.0166 15.5316 25.5891 16.0472 25.5891 16.6796C25.5891 17.2146 25.9072 17.6848 26.348 17.8016L32.3557 19.0176C34.0821 19.4716 35.8318 19.2381 37.3494 18.382L40.799 16.5661C40.968 16.4785 41.1569 16.4299 41.3491 16.4299H44.8516C45.4912 16.4299 46.0114 16.939 46.0114 17.5648C46.0114 18.1907 45.4912 18.6998 44.8516 18.6998H41.6407L38.4794 20.3633C37.1274 21.1254 35.623 21.5177 34.0987 21.5177L34.0888 21.521Z" fill="white"/>
<path d="M13.042 18.9819C12.6311 18.9819 12.2169 18.8944 11.8325 18.7193C11.0803 18.3788 10.5037 17.7562 10.2088 16.9617C9.66201 15.496 10.2419 13.813 11.5641 13.0477L20.6237 7.80744C21.8697 7.08755 23.3244 6.83786 24.7228 7.10376L36.5427 8.48517L44.7971 8.1836C45.4367 8.1609 45.9735 8.65055 46 9.2764C46.0265 9.90225 45.5228 10.4276 44.8833 10.4535L36.5361 10.7583C36.4764 10.7583 36.4168 10.7583 36.3572 10.7518L24.4047 9.35098C24.3715 9.34774 24.3417 9.34126 24.3119 9.33477C23.4636 9.16615 22.5722 9.31531 21.8034 9.75957L12.7438 15.0031C12.3826 15.2139 12.2202 15.7424 12.3859 16.1834C12.4687 16.4072 12.6178 16.5726 12.8034 16.6569C12.9492 16.7217 13.095 16.7282 13.2408 16.6731L21.1639 13.7838C21.5085 13.6573 21.8862 13.6314 22.2507 13.7092L25.0276 14.2994C25.6539 14.4324 26.0516 15.0355 25.9157 15.6484C25.7798 16.2613 25.1635 16.6504 24.5372 16.5174L21.8697 15.95L14.0527 18.8003C13.7246 18.9203 13.3833 18.9787 13.0453 18.9787L13.042 18.9819Z" fill="white"/>
<path d="M29.458 42.7382H22.8803C22.2408 42.7382 21.7205 42.2291 21.7205 41.6033C21.7205 40.9774 22.2408 40.4683 22.8803 40.4683H29.458C29.9882 40.4683 30.4157 39.9527 30.4157 39.3204C30.4157 38.7853 30.0976 38.3119 29.6569 38.1984L23.6491 36.9823C21.9227 36.5316 20.173 36.7618 18.6554 37.6179L15.2058 39.4339C15.0368 39.5214 14.8479 39.5701 14.6557 39.5701H11.1598C10.5203 39.5668 10 39.0577 10 38.4319C10 37.806 10.5203 37.2969 11.1598 37.2969H14.3708L17.532 35.6334C19.5567 34.4919 21.9326 34.1806 24.1892 34.774L30.197 35.9901C31.718 36.3889 32.7353 37.7509 32.7353 39.3204C32.7353 41.2044 31.264 42.7382 29.458 42.7382Z" fill="white"/>
<path d="M32.3821 49C32.0143 49 31.6431 48.9643 31.2786 48.8962L19.462 47.5148L11.2076 47.8164C10.5746 47.8423 10.0312 47.3526 10.0047 46.7236C9.98149 46.0977 10.4819 45.5724 11.1214 45.5464L19.4686 45.2416C19.5316 45.2416 19.5912 45.2416 19.6509 45.2481L31.6034 46.6457C31.6365 46.649 31.6663 46.6555 31.6961 46.6619C32.5478 46.8306 33.4358 46.6814 34.2046 46.2371L43.2643 40.9936C43.6255 40.7828 43.7878 40.2543 43.6221 39.81C43.5393 39.5895 43.3902 39.4209 43.2046 39.3366C43.0588 39.2717 42.913 39.2685 42.7639 39.3204L34.8408 42.2097C34.4929 42.3361 34.1185 42.3621 33.7606 42.2875L30.9804 41.6973C30.3541 41.5643 29.9565 40.9612 30.0923 40.3483C30.2282 39.7354 30.8478 39.3463 31.4708 39.4793L34.1383 40.0467L41.9554 37.1964C42.681 36.9305 43.4697 36.9629 44.1755 37.2807C44.9277 37.6179 45.5043 38.2438 45.7992 39.035C46.346 40.5007 45.7661 42.1837 44.4439 42.949L35.3843 48.1925C34.4631 48.7243 33.4292 49 32.3854 49H32.3821Z" fill="white"/>
<path d="M27.1898 34.1904C26.3614 34.1904 25.5827 33.8759 24.9962 33.3019L21.1423 29.5306C20.5558 28.9566 20.2344 28.1946 20.2344 27.3839C20.2344 26.5732 20.5558 25.8112 21.1423 25.2372C21.7289 24.6632 22.5076 24.3487 23.336 24.3487C24.1644 24.3487 24.9431 24.6632 25.5297 25.2372L27.1898 26.8618L30.4671 23.6547C31.6766 22.4711 33.6416 22.4711 34.8511 23.6547C35.4376 24.2287 35.759 24.9907 35.759 25.8014C35.759 26.6121 35.4376 27.3742 34.8511 27.9481L33.5024 29.2776C33.0518 29.7219 32.3161 29.7251 31.8621 29.2841C31.4082 28.8431 31.4048 28.1232 31.8555 27.679L33.2075 26.3462C33.3599 26.197 33.4395 26.0057 33.4395 25.8014C33.4395 25.5971 33.3566 25.4058 33.2108 25.2599C32.906 24.9616 32.4089 24.9616 32.104 25.2599L28.0083 29.2679C27.5543 29.7122 26.822 29.7122 26.368 29.2679L23.8894 26.8423C23.5945 26.5537 23.0775 26.5537 22.7826 26.8423C22.6335 26.9883 22.554 27.1796 22.554 27.3839C22.554 27.5882 22.6368 27.7795 22.7826 27.9254L26.6331 31.6935C26.928 31.9821 27.4417 31.9821 27.7399 31.6935L29.2708 30.1953C29.7248 29.7511 30.4571 29.7511 30.9111 30.1953C31.3651 30.6396 31.3651 31.3562 30.9111 31.8005L29.3802 33.2986C28.7937 33.8726 28.0149 34.1872 27.1865 34.1872L27.1898 34.1904Z" fill="white"/>
<path d="M35.3471 37.4136C35.0223 37.4136 34.6976 37.2807 34.4689 37.0213C34.0514 36.5478 34.1044 35.8312 34.5882 35.4193C36.9244 33.4445 38.2002 30.5812 38.0809 27.5654C38.0278 26.2424 37.7164 24.9712 37.153 23.7811C36.8846 23.2137 37.1365 22.5392 37.7164 22.2733C38.2963 22.0106 38.9855 22.2571 39.2572 22.8245C39.9531 24.287 40.3375 25.8533 40.4005 27.4811C40.5463 31.1908 38.9789 34.7092 36.1059 37.138C35.8872 37.3228 35.6188 37.4136 35.3471 37.4136Z" fill="white"/>
<path d="M17.9151 33.9601C17.4877 33.9601 17.0768 33.7299 16.8746 33.3278C16.0959 31.7907 15.6685 30.1337 15.5989 28.4053C15.4564 24.7151 17.0072 21.2064 19.857 18.7809C20.3408 18.369 21.0731 18.4209 21.4939 18.8911C21.9148 19.3646 21.8651 20.0812 21.3813 20.493C19.065 22.4679 17.8025 25.3215 17.9185 28.321C17.9715 29.7251 18.3227 31.0741 18.9556 32.3258C19.2406 32.8868 19.0053 33.5678 18.4321 33.8466C18.2664 33.9277 18.0908 33.9634 17.9185 33.9634L17.9151 33.9601Z" fill="white"/>
</g>
<defs>
<clipPath id="clip0_416_4488">
<rect width="36" height="42" fill="white" transform="translate(10 7)"/>
</clipPath>
</defs>
</svg>
