<svg width="55" height="55" viewBox="0 0 55 55" fill="none" xmlns="http://www.w3.org/2000/svg">
<circle cx="27.5" cy="27.5" r="27.5" fill="#3C94C5"/>
<g clip-path="url(#clip0_470_3999)">
<path d="M31.7975 28C32.3988 27.995 34.1488 28.6987 35.205 29.25H43V26.75H36.75V18.625C36.75 16.9025 35.3487 15.5 33.625 15.5H31.75V14.875C31.75 13.84 30.91 13 29.875 13H26.125C25.09 13 24.25 13.84 24.25 14.875V15.5H22.375C20.6512 15.5 19.25 16.9025 19.25 18.625V26.75H13V29.25H20.795C21.7437 28.7612 23.4975 28.01 24.25 28C24.7137 28 25.1588 28.1725 25.5013 28.485L26.1838 29.1063L23.5975 31.4913C22.895 32.1938 22.795 33.2725 23.3612 34.06C23.7312 34.5763 24.3325 34.8825 24.965 34.8825C25.4862 34.8825 25.9825 34.6788 26.3238 34.3363L28.3287 32.4688L33.3612 36.955L28.8187 40.5H27.1788L20.7725 35.5H13V38H19.9138L26.32 43H29.68L36.0863 38H43V35.5H35.4875L29.1063 29.8125L30.5238 28.505C30.8687 28.18 31.3213 28 31.7975 28ZM21.75 18.625C21.75 18.28 22.0312 18 22.375 18H33.625C33.9688 18 34.25 18.28 34.25 18.625V20.5H21.75V18.625ZM28.815 26.6363L28 27.1737L27.185 26.6363C26.2312 25.97 25.3375 25.5 24.25 25.5C23.515 25.5 22.58 25.7775 21.75 26.0912V23H26.75V24.25H29.25V23H34.25V26.0963C33.4487 25.7963 32.4813 25.4762 31.75 25.5C30.6612 25.5 29.7725 25.9463 28.815 26.6363Z" fill="white"/>
</g>
<defs>
<clipPath id="clip0_470_3999">
<rect width="30" height="30" fill="white" transform="translate(13 13)"/>
</clipPath>
</defs>
</svg>
