<svg width="48" height="48" viewBox="0 0 48 48" fill="none" xmlns="http://www.w3.org/2000/svg">
<g clip-path="url(#clip0_147_15389)">
<path d="M35.6831 47.5774H11.8944C5.33462 47.5774 0 42.2428 0 35.6831V4.95598C0 2.22226 2.22226 0 4.95598 0H7.51327C9.83068 0 11.8666 1.6434 12.3563 3.9073L16.0257 20.825C16.0257 20.825 22.2127 14.6638 22.2682 14.6182C23.2891 13.7975 24.661 13.6448 25.8405 14.2138C27.02 14.7807 27.7535 15.9464 27.7535 17.2547V19.0151C27.7535 19.0151 32.1247 14.6638 32.1802 14.6182C33.2011 13.7975 34.5709 13.6448 35.7524 14.2138C36.932 14.7807 37.6655 15.9464 37.6655 17.2547V19.0151C37.6655 19.0151 42.0366 14.6638 42.0921 14.6182C43.1131 13.7975 44.4849 13.6448 45.6644 14.2138C46.8439 14.7807 47.5774 15.9464 47.5774 17.2547V35.6831C47.5774 42.2428 42.2428 47.5774 35.6831 47.5774ZM4.95598 3.96478C4.41082 3.96478 3.96478 4.41082 3.96478 4.95598V35.6831C3.96478 40.0562 7.5212 43.6126 11.8944 43.6126H35.6831C40.0562 43.6126 43.6126 40.0562 43.6126 35.6831V18.684L37.0826 25.1922C36.5157 25.7572 35.6652 25.9218 34.9218 25.6204C34.1824 25.3132 33.7007 24.5896 33.7007 23.7887V18.684L27.1707 25.1922C26.6017 25.7572 25.7493 25.9218 25.0099 25.6204C24.2704 25.3132 23.7887 24.5896 23.7887 23.7887V18.684L17.2587 25.1922C16.886 25.5649 16.3845 25.7711 15.8591 25.7711H14.64C13.7063 25.7711 12.8994 25.1209 12.7012 24.209L8.48067 4.74783C8.38354 4.29386 7.97516 3.96478 7.51327 3.96478H4.95598ZM19.8239 35.6831V33.7007C19.8239 32.6064 18.9358 31.7183 17.8415 31.7183H15.8591C14.7649 31.7183 13.8767 32.6064 13.8767 33.7007V35.6831C13.8767 36.7773 14.7649 37.6655 15.8591 37.6655H17.8415C18.9358 37.6655 19.8239 36.7773 19.8239 35.6831ZM29.7359 35.6831V33.7007C29.7359 32.6064 28.8478 31.7183 27.7535 31.7183H25.7711C24.6768 31.7183 23.7887 32.6064 23.7887 33.7007V35.6831C23.7887 36.7773 24.6768 37.6655 25.7711 37.6655H27.7535C28.8478 37.6655 29.7359 36.7773 29.7359 35.6831ZM39.6479 35.6831V33.7007C39.6479 32.6064 38.7597 31.7183 37.6655 31.7183H35.6831C34.5888 31.7183 33.7007 32.6064 33.7007 33.7007V35.6831C33.7007 36.7773 34.5888 37.6655 35.6831 37.6655H37.6655C38.7597 37.6655 39.6479 36.7773 39.6479 35.6831Z" fill="#D95C00"/>
</g>
<defs>
<clipPath id="clip0_147_15389">
<rect width="47.5774" height="47.5774" fill="white"/>
</clipPath>
</defs>
</svg>
