<svg width="26" height="26" viewBox="0 0 26 26" fill="none" xmlns="http://www.w3.org/2000/svg">
<g clip-path="url(#clip0_147_15802)">
<path fill-rule="evenodd" clip-rule="evenodd" d="M12.6277 2.2752C15.9997 2.2752 16.3986 2.28823 17.7305 2.34889C18.9615 2.40502 19.6303 2.61054 20.0753 2.78347C20.6647 3.01255 21.0854 3.28624 21.5275 3.72784C21.9696 4.16995 22.2432 4.59051 22.4719 5.17998C22.6448 5.62509 22.8503 6.29377 22.9064 7.52485C22.967 8.85619 22.9801 9.2557 22.9801 12.6276C22.9801 15.9995 22.967 16.3986 22.9064 17.7304C22.8503 18.9616 22.6448 19.6301 22.4719 20.0753C22.2428 20.6647 21.969 21.0854 21.5275 21.5275C21.0854 21.9696 20.6647 22.2432 20.0753 22.4718C19.6303 22.6448 18.9615 22.8503 17.7305 22.9064C16.3991 22.9671 15.9997 22.9801 12.6277 22.9801C9.25571 22.9801 8.8562 22.9671 7.52486 22.9064C6.29378 22.8503 5.6251 22.6448 5.17999 22.4718C4.5905 22.2428 4.16996 21.969 3.72785 21.5275C3.28574 21.0854 3.01205 20.6647 2.78347 20.0753C2.61054 19.6301 2.40504 18.9616 2.34888 17.7304C2.28824 16.3991 2.27521 15.9995 2.27521 12.6276C2.27521 9.2557 2.28824 8.85669 2.34888 7.52485C2.40504 6.29377 2.61054 5.62509 2.78347 5.17998C3.01255 4.59051 3.28624 4.16995 3.72785 3.72784C4.16996 3.28573 4.5905 3.01205 5.17999 2.78347C5.6251 2.61054 6.29378 2.40502 7.52486 2.34889C8.8567 2.28823 9.25571 2.2752 12.6277 2.2752ZM12.6277 0C9.19806 0 8.76799 0.0145364 7.4211 0.076191C6.07724 0.137344 5.15944 0.350879 4.35592 0.663161C3.52533 0.985971 2.82107 1.41755 2.11931 2.11981C1.41755 2.82157 0.985471 3.52584 0.663162 4.35591C0.350879 5.15942 0.137344 6.07723 0.0761911 7.42109C0.0145364 8.76798 0 9.19805 0 12.6276C0 16.0572 0.0145364 16.4874 0.0761911 17.8342C0.137344 19.1781 0.350879 20.0958 0.663162 20.8993C0.985972 21.73 1.41755 22.4342 2.11982 23.136C2.82207 23.8382 3.52584 24.2698 4.35642 24.5927C5.15944 24.9048 6.07773 25.1184 7.42161 25.1796C8.76848 25.2413 9.19856 25.2557 12.6282 25.2557C16.0577 25.2557 16.4878 25.2413 17.8347 25.1796C19.1786 25.1184 20.0969 24.9048 20.8999 24.5927C21.7305 24.2698 22.4347 23.8382 23.1365 23.136C23.8388 22.4337 24.2704 21.73 24.5932 20.8993C24.9054 20.0964 25.1189 19.1781 25.1801 17.8342C25.2418 16.4874 25.2563 16.0572 25.2563 12.6276C25.2563 9.19805 25.2418 8.76798 25.1801 7.42109C25.1189 6.07723 24.9054 5.15893 24.5932 4.35591C24.2704 3.52533 23.8388 2.82106 23.1365 2.11931C22.4343 1.41705 21.7305 0.98547 20.8999 0.66266C20.0959 0.350879 19.178 0.137344 17.8342 0.076191C16.4874 0.0145364 16.0572 0 12.6277 0ZM12.6275 6.14325C9.04602 6.14325 6.14324 9.04653 6.14324 12.6275C6.14324 16.2084 9.04652 19.1118 12.6275 19.1118C16.2084 19.1118 19.1118 16.2084 19.1118 12.6275C19.1118 9.04653 16.209 6.14325 12.6275 6.14325ZM12.6275 16.8366C10.3027 16.8366 8.41844 14.9519 8.41844 12.6275C8.41844 10.3027 10.3032 8.41844 12.6275 8.41844C14.9518 8.41844 16.8366 10.3032 16.8366 12.6275C16.8366 14.9523 14.9523 16.8366 12.6275 16.8366ZM20.8838 5.88688C20.8838 6.72375 20.2054 7.40218 19.3684 7.40218C18.5316 7.40218 17.8533 6.72375 17.8533 5.88688C17.8533 5.05001 18.5316 4.37158 19.3684 4.37158C20.2054 4.37158 20.8838 5.05001 20.8838 5.88688Z" fill="white"/>
</g>
<defs>
<clipPath id="clip0_147_15802">
<rect width="25.2553" height="25.2553" fill="white"/>
</clipPath>
</defs>
</svg>
