<svg width="55" height="55" viewBox="0 0 55 55" fill="none" xmlns="http://www.w3.org/2000/svg">
<circle cx="27.5" cy="27.5" r="27.5" fill="#3C94C5"/>
<path d="M10.4766 25.1625V10.9219H47.0953V41.7H27.0797" stroke="white" stroke-width="2" stroke-miterlimit="10" stroke-linecap="round" stroke-linejoin="round"/>
<path d="M13.6914 25.4906V14.0062H43.9445V38.6156H26.7508" stroke="white" stroke-width="2" stroke-miterlimit="10" stroke-linecap="round" stroke-linejoin="round"/>
<path d="M10.4766 29.1C17.4984 29.1 23.1422 34.7437 23.1422 41.7656" stroke="white" stroke-width="2" stroke-miterlimit="10" stroke-linecap="round" stroke-linejoin="round"/>
<path d="M10.4766 33.1031C15.2672 33.1031 19.1391 36.975 19.1391 41.7656" stroke="white" stroke-width="2" stroke-miterlimit="10" stroke-linecap="round" stroke-linejoin="round"/>
<path d="M10.4766 36.6469C13.2984 36.6469 15.5953 38.9437 15.5953 41.7656" stroke="white" stroke-width="2" stroke-miterlimit="10" stroke-linecap="round" stroke-linejoin="round"/>
<path d="M10.6742 43.0782C11.6528 43.0782 12.4461 42.2849 12.4461 41.3063C12.4461 40.3277 11.6528 39.5344 10.6742 39.5344C9.69564 39.5344 8.90234 40.3277 8.90234 41.3063C8.90234 42.2849 9.69564 43.0782 10.6742 43.0782Z" stroke="white" stroke-width="2" stroke-miterlimit="10" stroke-linecap="round" stroke-linejoin="round"/>
</svg>
