<svg width="40" height="40" viewBox="0 0 40 40" fill="none" xmlns="http://www.w3.org/2000/svg">
<g clip-path="url(#clip0_489_4810)">
<path d="M38.3317 26.6667H37.865L36.4317 22.3633C35.295 18.955 32.1183 16.6667 28.5267 16.6667H11.47C10.97 16.6667 10.4783 16.7133 9.99833 16.7983V11.6667C9.99833 8.91 12.2417 6.66667 14.9983 6.66667H15.285C15.9733 8.60667 17.825 10 19.9983 10H24.9983C27.755 10 29.9983 7.75667 29.9983 5C29.9983 2.24333 27.755 0 24.9983 0H19.9983C17.825 0 15.9733 1.39333 15.285 3.33333H14.9983C10.4033 3.33333 6.665 7.07167 6.665 11.6667V18.19C5.24667 19.19 4.14167 20.6333 3.56333 22.365L2.13167 26.6667H1.66667C0.745 26.6667 0 27.4133 0 28.3333C0 29.2533 0.745 30 1.66667 30H3.29167C3.325 30 3.35667 30 3.38833 30H18.3317V36.6667H13.3317C12.41 36.6667 11.665 37.4133 11.665 38.3333C11.665 39.2533 12.41 40 13.3317 40H26.665C27.5867 40 28.3317 39.2533 28.3317 38.3333C28.3317 37.4133 27.5867 36.6667 26.665 36.6667H21.665V30H38.3317C39.2533 30 39.9983 29.2533 39.9983 28.3333C39.9983 27.4133 39.2533 26.6667 38.3317 26.6667ZM19.9983 3.33333H24.9983C25.9183 3.33333 26.665 4.08167 26.665 5C26.665 5.91833 25.9183 6.66667 24.9983 6.66667H19.9983C19.0783 6.66667 18.3317 5.91833 18.3317 5C18.3317 4.08167 19.0783 3.33333 19.9983 3.33333ZM6.725 23.4183C7.40833 21.3733 9.315 20 11.47 20H28.5267C30.6817 20 32.5883 21.3733 33.2717 23.4183L34.3533 26.6667H5.64333L6.725 23.4183Z" fill="#3C94C5"/>
</g>
<defs>
<clipPath id="clip0_489_4810">
<rect width="40" height="40" fill="white"/>
</clipPath>
</defs>
</svg>
