<svg width="41" height="41" viewBox="0 0 41 41" fill="none" xmlns="http://www.w3.org/2000/svg">
<g clip-path="url(#clip0_245_579)">
<path d="M11.957 17.0833V15.375C11.957 14.432 12.7207 13.6667 13.6654 13.6667C14.6101 13.6667 15.3737 14.432 15.3737 15.375V17.0833C15.3737 18.0263 14.6101 18.7917 13.6654 18.7917C12.7207 18.7917 11.957 18.0263 11.957 17.0833ZM17.082 22.2083H13.6654C12.7207 22.2083 11.957 22.9737 11.957 23.9167V27.3333C11.957 28.2763 12.7207 29.0417 13.6654 29.0417H17.082C18.0267 29.0417 18.7904 28.2763 18.7904 27.3333V23.9167C18.7904 22.9737 18.0267 22.2083 17.082 22.2083ZM20.4987 13.6667C19.554 13.6667 18.7904 14.432 18.7904 15.375V17.0833C18.7904 18.0263 19.554 18.7917 20.4987 18.7917C21.4434 18.7917 22.207 18.0263 22.207 17.0833V15.375C22.207 14.432 21.4434 13.6667 20.4987 13.6667ZM39.2904 39.2917C39.2904 40.2347 38.5267 41 37.582 41H3.41536C2.47066 41 1.70703 40.2347 1.70703 39.2917C1.70703 38.3487 2.47066 37.5833 3.41536 37.5833H5.1237V12.1121C5.1237 8.24442 8.01762 4.96442 11.8562 4.48438L18.7904 3.61825V1.71004C18.7904 0.767042 19.554 0.00170898 20.4987 0.00170898C21.4434 0.00170898 22.207 0.767042 22.207 1.71004V3.61825L29.1412 4.48438C32.9798 4.96442 35.8737 8.24442 35.8737 12.1121V37.5833H37.582C38.5267 37.5833 39.2904 38.3487 39.2904 39.2917ZM32.457 12.1121C32.457 11.4475 32.3033 10.8155 32.0282 10.25H8.96916C8.69412 10.8155 8.54037 11.4475 8.54037 12.1121V37.5833H32.457V12.1121ZM27.332 13.6667C26.3873 13.6667 25.6237 14.432 25.6237 15.375V17.0833C25.6237 18.0263 26.3873 18.7917 27.332 18.7917C28.2767 18.7917 29.0404 18.0263 29.0404 17.0833V15.375C29.0404 14.432 28.2767 13.6667 27.332 13.6667Z" fill="#E68238"/>
</g>
<defs>
<clipPath id="clip0_245_579">
<rect width="41" height="41" fill="white"/>
</clipPath>
</defs>
</svg>
