<svg width="40" height="40" viewBox="0 0 40 40" fill="none" xmlns="http://www.w3.org/2000/svg">
<path d="M38.3333 23.3333H36.6667V8.33333C36.664 6.12401 35.7852 4.00593 34.223 2.4437C32.6607 0.88147 30.5427 0.00264643 28.3333 0L11.6667 0C9.45734 0.00264643 7.33926 0.88147 5.77703 2.4437C4.2148 4.00593 3.33598 6.12401 3.33333 8.33333V23.3333H1.66667C1.22464 23.3333 0.800716 23.5089 0.488155 23.8215C0.175595 24.134 0 24.558 0 25C0 25.442 0.175595 25.8659 0.488155 26.1785C0.800716 26.4911 1.22464 26.6667 1.66667 26.6667H18.3333V33.3333H15C13.6739 33.3333 12.4021 33.8601 11.4645 34.7978C10.5268 35.7355 10 37.0073 10 38.3333C10 38.7754 10.1756 39.1993 10.4882 39.5118C10.8007 39.8244 11.2246 40 11.6667 40C12.1087 40 12.5326 39.8244 12.8452 39.5118C13.1577 39.1993 13.3333 38.7754 13.3333 38.3333C13.3333 37.8913 13.5089 37.4674 13.8215 37.1548C14.134 36.8423 14.558 36.6667 15 36.6667H25C25.442 36.6667 25.8659 36.8423 26.1785 37.1548C26.4911 37.4674 26.6667 37.8913 26.6667 38.3333C26.6667 38.7754 26.8423 39.1993 27.1548 39.5118C27.4674 39.8244 27.8913 40 28.3333 40C28.7754 40 29.1993 39.8244 29.5118 39.5118C29.8244 39.1993 30 38.7754 30 38.3333C30 37.0073 29.4732 35.7355 28.5355 34.7978C27.5979 33.8601 26.3261 33.3333 25 33.3333H21.6667V26.6667H38.3333C38.7754 26.6667 39.1993 26.4911 39.5118 26.1785C39.8244 25.8659 40 25.442 40 25C40 24.558 39.8244 24.134 39.5118 23.8215C39.1993 23.5089 38.7754 23.3333 38.3333 23.3333ZM6.66667 8.33333C6.66667 7.00725 7.19345 5.73548 8.13113 4.7978C9.06881 3.86012 10.3406 3.33333 11.6667 3.33333H28.3333C29.6594 3.33333 30.9312 3.86012 31.8689 4.7978C32.8065 5.73548 33.3333 7.00725 33.3333 8.33333V23.3333H6.66667V8.33333Z" fill="#3C94C5"/>
</svg>
