<svg width="55" height="55" viewBox="0 0 55 55" fill="none" xmlns="http://www.w3.org/2000/svg">
<circle cx="27.5" cy="27.5" r="27.5" fill="#3C94C5"/>
<g clip-path="url(#clip0_416_4508)">
<path d="M27.9989 49C17.791 49 9.09441 41.7135 7.31913 31.677C7.22081 31.1152 7.59441 30.5786 8.15621 30.4803C8.718 30.382 9.25452 30.7556 9.35284 31.3174C10.9511 40.3652 18.7938 46.9326 27.9989 46.9326C38.4399 46.9326 46.9343 38.4382 46.9343 27.9972C46.9343 17.5562 38.4399 9.06461 27.9989 9.06461C17.5579 9.06461 9.06351 17.559 9.06351 28C9.06351 28.5702 8.60003 29.0337 8.0298 29.0337C7.45958 29.0337 6.99609 28.5702 6.99609 28C6.9989 16.4213 16.4203 7 27.9989 7C39.5776 7 48.9989 16.4213 48.9989 28C48.9989 39.5787 39.5776 49 27.9989 49Z" fill="white"/>
<path d="M27.9974 42.823C24.0311 42.823 20.3092 41.2837 17.5115 38.4859C11.7306 32.705 11.7306 23.2977 17.5115 17.514C21.2221 13.8033 26.6912 12.3286 31.7839 13.6657C32.3345 13.8089 32.6659 14.3764 32.5199 14.9269C32.3738 15.4775 31.812 15.8089 31.2586 15.6629C26.8738 14.514 22.1659 15.7809 18.9721 18.9747C13.9974 23.9522 13.9974 32.0477 18.9721 37.0252C21.3794 39.4325 24.5845 40.7584 27.9974 40.7584C28.5676 40.7584 29.0311 41.2219 29.0311 41.7921C29.0311 42.3623 28.5676 42.8258 27.9974 42.8258V42.823Z" fill="white"/>
<path d="M31.4346 42.3904C30.9739 42.3904 30.5525 42.0786 30.4346 41.6123C30.2941 41.059 30.6256 40.4972 31.179 40.3567C33.3868 39.7921 35.4065 38.6404 37.0245 37.0252C40.2183 33.8314 41.4879 29.1236 40.3363 24.7387C40.1902 24.1882 40.5216 23.6236 41.0722 23.4775C41.6228 23.3314 42.1874 23.6629 42.3334 24.2134C43.6705 29.3061 42.1958 34.7752 38.4851 38.4859C36.6059 40.3651 34.2576 41.705 31.6902 42.3595C31.6031 42.382 31.5188 42.3904 31.4346 42.3904Z" fill="white"/>
<path d="M27.999 35.3342C26.1198 35.3342 24.2406 34.618 22.8108 33.1882C19.9485 30.3258 19.9485 25.6713 22.8108 22.809C24.4625 21.1573 26.8333 20.3876 29.1395 20.7472C29.7041 20.8342 30.0889 21.3651 29.999 21.9269C29.9091 22.4887 29.3839 22.8764 28.8193 22.7865C27.1591 22.5253 25.4569 23.0814 24.2715 24.2668C22.2153 26.323 22.2153 29.6685 24.2715 31.7247C26.3277 33.7809 29.6732 33.7809 31.7294 31.7247C32.926 30.5281 33.4766 28.8146 33.2041 27.1404C33.1114 26.5786 33.4934 26.0477 34.058 25.955C34.6198 25.8651 35.1535 26.2444 35.2434 26.809C35.6226 29.1376 34.8558 31.5224 33.19 33.1854C31.7603 34.6151 29.8811 35.3314 28.0018 35.3314L27.999 35.3342Z" fill="white"/>
<path d="M27.9986 29.0337C27.7345 29.0337 27.4705 28.9326 27.2682 28.7303C26.8637 28.3258 26.8637 27.6742 27.2682 27.2697L31.9705 22.5674C32.375 22.1629 33.0266 22.1629 33.4311 22.5674C33.8356 22.9719 33.8356 23.6236 33.4311 24.0281L28.7289 28.7303C28.5266 28.9326 28.2626 29.0337 27.9986 29.0337Z" fill="white"/>
<path d="M36.5621 24.8146C36.4329 24.8146 36.3009 24.8061 36.1717 24.7893L32.5677 24.323C32.1015 24.264 31.7363 23.896 31.6745 23.4297L31.2082 19.8258C31.0874 18.8792 31.4161 17.9129 32.0902 17.2387L34.8824 14.4466C35.3346 13.9943 35.9919 13.8314 36.6015 14.0168C37.211 14.2022 37.6661 14.7078 37.7868 15.3342L38.2559 17.7387L40.6604 18.2078C41.2868 18.3286 41.7897 18.7837 41.9779 19.396C42.1633 20.0056 42.0003 20.6657 41.5481 21.1151L38.7559 23.9073C38.1745 24.4887 37.3739 24.8146 36.5593 24.8146H36.5621ZM33.6211 22.3764L36.4357 22.7415C36.756 22.7865 37.0734 22.6713 37.2981 22.4466L39.6324 20.1095L37.1801 19.632C36.7672 19.5505 36.4442 19.2275 36.3655 18.8174L35.888 16.3651L33.5509 18.6994C33.3234 18.9269 33.2166 19.2415 33.256 19.5618L33.6211 22.3764Z" fill="white"/>
</g>
<defs>
<clipPath id="clip0_416_4508">
<rect width="42" height="42" fill="white" transform="translate(7 7)"/>
</clipPath>
</defs>
</svg>
