<svg width="55" height="55" viewBox="0 0 55 55" fill="none" xmlns="http://www.w3.org/2000/svg">
<circle cx="27.5" cy="27.5" r="27.5" fill="#3C94C5"/>
<path d="M39.9573 21.1275C39.4953 21.0351 39.0585 21.3291 38.9661 21.7827C38.4033 24.5716 36.8408 27.0581 34.5559 28.797C33.6571 29.4774 32.9263 30.351 32.4223 31.3338C32.0358 32.0899 31.7923 32.8879 31.6915 33.7195H28.2809V31.0987C31.1622 30.477 33.3211 26.6885 33.3211 21.9592C33.3211 16.9526 28.1633 13.0465 27.9449 12.8869C27.6425 12.6601 27.2393 12.6601 26.9369 12.8869C26.7185 13.0465 21.5607 16.9526 21.5607 21.9592C21.5607 26.6885 23.7196 30.477 26.6009 31.0987V33.7195H23.1904C22.9636 31.7875 21.9555 30.0318 20.3427 28.8054C17.285 26.4953 15.5462 22.8244 15.689 18.9938C15.9074 12.9456 20.8131 7.98952 26.8613 7.69548C32.0527 7.42671 36.8576 10.686 38.5461 15.5917C38.6973 16.0286 39.1761 16.2554 39.6213 16.1126C40.0581 15.953 40.2933 15.4825 40.1421 15.0374C38.2017 9.43434 32.7079 5.72984 26.7773 6.01543C19.8723 6.35145 14.2609 12.0216 14.0089 18.9267C13.8493 23.3032 15.8402 27.5033 19.3347 30.1494C20.5611 31.0819 21.3339 32.4175 21.5188 33.8876C20.5611 34.2488 19.8807 35.1644 19.8807 36.2396V37.9197C19.8807 39.0117 20.5864 39.9357 21.5608 40.2886V42.1198C21.5608 43.237 22.3 44.1779 23.3164 44.5055C23.6524 46.488 25.3661 48 27.4409 48C29.5158 48 31.2295 46.488 31.5654 44.5055C32.5819 44.1779 33.3211 43.237 33.3211 42.1198V40.2886C34.2955 39.9357 35.0012 39.0117 35.0012 37.9197V36.2396C35.0012 35.1644 34.3208 34.2488 33.3631 33.8876C33.4388 33.2659 33.6235 32.6695 33.9176 32.0983C34.3039 31.3423 34.8752 30.6618 35.5724 30.141C38.1849 28.1502 39.9741 25.3025 40.6126 22.1188C40.705 21.6651 40.4109 21.2199 39.9573 21.1275ZM28.281 15.4237C28.8102 15.9445 29.415 16.625 29.9694 17.4062L28.281 19.0946V15.4237ZM28.281 21.4635L30.8598 18.893C31.1622 19.5146 31.4058 20.1867 31.5319 20.8755L28.281 24.1348V21.4635ZM28.281 26.5037L31.5738 23.2108C31.2799 26.2433 29.9442 28.7214 28.281 29.3598V26.5037ZM26.6009 15.4321V19.0946L24.9208 17.4062C25.4669 16.625 26.0801 15.953 26.6009 15.4321ZM24.0304 18.893L26.6009 21.4635V24.1348L23.35 20.8755C23.476 20.1867 23.7196 19.5231 24.0304 18.893ZM23.308 23.2108L26.6009 26.5037V29.3598C24.9377 28.7214 23.602 26.2433 23.308 23.2108ZM27.4409 46.3199C26.3489 46.3199 25.4081 45.6143 25.0636 44.6399H29.8182C29.4738 45.6143 28.533 46.3199 27.4409 46.3199ZM31.6411 42.1198C31.6411 42.5818 31.263 42.9598 30.801 42.9598H24.0808C23.6188 42.9598 23.2408 42.5818 23.2408 42.1198V40.4397H31.6411V42.1198ZM33.3211 37.9197C33.3211 38.3817 32.9431 38.7597 32.4811 38.7597H22.4008C21.9388 38.7597 21.5607 38.3817 21.5607 37.9197V36.2396C21.5607 35.7776 21.9388 35.3996 22.4008 35.3996H32.4811C32.9431 35.3996 33.3211 35.7776 33.3211 36.2396V37.9197Z" fill="white"/>
<path d="M17.3678 19.0556C17.3509 19.5195 17.7127 19.9092 18.1762 19.9264C18.1869 19.9268 18.1975 19.9268 18.2078 19.9268C18.6573 19.9268 19.0302 19.5708 19.047 19.118C19.2065 14.8017 22.7082 11.2575 27.019 11.0491C27.4825 11.0265 27.8398 10.6328 27.8176 10.1693C27.7947 9.70539 27.3915 9.34609 26.9378 9.3707C21.7631 9.6209 17.5593 13.8752 17.3678 19.0556Z" fill="white"/>
<path d="M40.0392 19.4391C40.5032 19.4391 40.8793 19.063 40.8793 18.5991C40.8793 18.1351 40.5032 17.759 40.0392 17.759C39.5753 17.759 39.1992 18.1351 39.1992 18.5991C39.1992 19.063 39.5753 19.4391 40.0392 19.4391Z" fill="white"/>
</svg>
