<svg width="70" height="70" viewBox="0 0 70 70" fill="none" xmlns="http://www.w3.org/2000/svg">
<g clip-path="url(#clip0_301_3589)">
<path d="M68.717 63.259C67.0772 62.5969 65.0956 60.6863 63.3782 58.1505C70.6251 47.9126 69.3611 32.8811 60.4792 23.99C60.4335 23.9428 60.3859 23.8989 60.337 23.8571C56.074 0.882333 27.1372 -8.06126 10.6761 8.60421C0.717783 18.2257 -0.773273 34.8314 7.25854 46.0728C5.34913 48.9193 3.1254 51.0718 1.28284 51.8158C0.527196 52.121 0.023798 52.8446 0.000829211 53.6592C-0.0222763 54.4739 0.439149 55.2249 1.17634 55.5724C6.59136 58.1248 12.1126 58.4871 17.6232 56.6615C24.3228 68.4187 40.0381 73.3606 52.2551 67.5256C57.8011 69.7562 63.3705 69.5858 68.8235 67.0157C69.5607 66.6681 70.0222 65.9171 69.9991 65.1024C69.9759 64.2878 69.4727 63.5642 68.717 63.259ZM6.5621 53.1824C8.91257 51.0771 10.6746 48.4136 11.4944 47.0533C11.9294 46.3316 11.8785 45.417 11.3661 44.748C-1.36896 28.4374 10.7523 3.91968 31.4615 4.09632C45.4077 4.09618 56.7542 15.4425 56.7542 29.389C57.0626 47.8486 36.4777 60.5464 20.137 52.0101C19.5858 51.7335 18.9398 51.7198 18.3777 51.9722C14.3704 53.7705 10.4746 54.1743 6.5621 53.1824ZM53.0439 63.4048C52.4816 63.1525 51.8356 63.1663 51.2846 63.4426C42.0485 68.264 29.7752 65.663 23.32 57.6419C41.0979 62.985 59.9538 49.6634 60.8035 31.1264C65.5474 38.9306 64.9536 49.6223 59.2703 56.8308C58.7579 57.5 58.7072 58.4144 59.1421 59.1361C59.8712 60.3457 61.4066 62.6702 63.4616 64.5797C60.0135 65.3824 56.5767 64.9904 53.0439 63.4048Z" fill="#E68238"/>
<path d="M51.5441 29.3889C51.5441 18.3158 42.5354 9.30713 31.4625 9.30713C4.85781 10.3167 4.86505 48.4652 31.4627 49.4707C42.5354 49.4707 51.5441 40.4621 51.5441 29.3889ZM47.4426 29.3889C47.4426 30.7742 47.2651 32.1187 46.9323 33.4012C45.3676 35.2887 43.6317 36.2938 41.4466 36.5623C41.4852 36.2426 41.537 35.898 41.579 35.6187C42.0449 33.1646 42.1608 29.403 39.1484 29.002C38.5639 28.9472 38.0795 29.0936 37.7506 29.1986C37.6205 29.0969 37.5225 28.9851 37.4752 28.9093C37.535 28.7257 37.7588 28.3609 37.9123 28.1107C38.3193 27.4474 38.8258 26.622 38.9535 25.5622C39.0492 24.7678 38.8026 24.1149 38.537 23.6249C39.036 23.3048 39.6329 22.8386 39.9951 22.0612C40.4549 21.0742 40.5157 20.0549 40.5646 19.2358C40.5962 18.7049 40.6322 18.1032 40.7781 17.8829C41.0381 17.4902 41.3282 17.1953 41.559 17.0121C45.1475 19.9449 47.4426 24.4038 47.4426 29.3889ZM37.9768 14.7982C36.7931 16.0736 36.5072 17.6012 36.4702 18.9915C36.4445 19.4225 36.418 19.8659 36.3358 20.1638C36.2602 20.2125 36.1638 20.2702 36.0907 20.3141C35.5048 20.6649 34.5244 21.2522 34.1622 22.4774C33.7781 23.7768 34.4297 24.7901 34.7798 25.3345L34.7808 25.3362C34.684 25.5291 34.536 25.7703 34.4163 25.9655C33.9544 26.7181 33.3218 27.7488 33.3622 29.0709C33.4592 31.3373 35.6623 33.405 37.7235 33.3621C37.6848 33.9291 37.5843 34.5983 37.5225 35.0097C37.2651 36.7244 36.9987 38.4975 38.0951 39.7499C38.663 40.4016 39.5067 40.7537 40.4365 40.7364C41.3196 40.722 42.1634 40.6293 42.9724 40.4626C38.7232 45.132 30.8901 46.778 25.0199 44.0117C26.6759 41.8902 29.1415 39.6495 29.9229 37.1846C30.2498 36.1625 29.9365 35.0831 29.085 34.297C28.6708 33.9146 28.1804 33.6358 27.7477 33.39C27.6841 33.3538 27.6114 33.3126 27.5375 33.2697C27.7888 32.3326 28.145 30.5396 26.6158 29.0798C24.8609 26.9013 24.8923 26.186 24.9017 26.1105C24.9393 25.8141 25.9551 25.0668 26.6271 24.5725C27.5269 23.9106 28.6465 23.0869 29.7387 21.9591C31.0713 20.5831 30.9798 19.1963 30.8067 18.492C30.3442 16.61 28.4097 15.3277 26.1068 14.3329C29.8138 12.9567 34.4202 13.1459 37.9768 14.7982ZM15.4822 29.3889C15.4822 24.3813 17.7981 19.9052 21.4144 16.9729C21.4518 16.9854 21.4892 16.9977 21.529 17.0108C22.3193 17.2722 23.6419 17.7096 24.8215 18.254C25.809 18.7096 26.3325 19.0723 26.6002 19.3C25.8067 20.0841 24.9892 20.6857 24.1968 21.2685C22.6706 22.3914 21.0923 23.5524 20.8331 25.5936C20.6109 27.3424 21.417 29.1937 23.5283 31.784C23.5652 31.8294 23.6052 31.8742 23.6472 31.9174C23.6197 32.0533 23.5679 32.2386 23.5296 32.3751C23.342 33.0453 23.0281 34.167 23.6771 35.2373C24.1511 36.0194 24.9072 36.4897 25.5558 36.8616C25.0199 37.7117 24.1689 38.6866 23.3925 39.576C22.7365 40.3275 22.068 41.0945 21.4978 41.8723C17.8338 38.9415 15.4822 34.4351 15.4822 29.3889Z" fill="#E68238"/>
</g>
<defs>
<clipPath id="clip0_301_3589">
<rect width="70" height="70" fill="white"/>
</clipPath>
</defs>
</svg>
