<svg width="70" height="70" viewBox="0 0 70 70" fill="none" xmlns="http://www.w3.org/2000/svg">
<path d="M64.8697 40.8449L59.4779 22.6305C57.4199 9.85275 45.4533 -0.203712 32.4847 0.00313435C11.6348 -0.261542 -1.92619 23.3942 8.80932 41.2355C11.048 45.0619 12.0463 48.7452 12.0463 53.1783V67.9492C12.0463 69.0817 12.9644 69.9999 14.097 69.9999H34.6038C35.7363 69.9999 36.6545 69.0817 36.6545 67.9492V62.2076C36.6545 60.8505 37.7585 59.7464 39.1157 59.7464H45.5404C51.1191 59.7464 55.6575 55.2079 55.6575 49.6292V44.5651L63.2019 43.4557C64.4046 43.3075 65.2406 41.9985 64.8697 40.8449ZM53.3084 40.7653C52.3019 40.9132 51.5562 41.7767 51.5562 42.7941V49.6294C51.5562 52.9466 48.8576 55.6451 45.5404 55.6451H39.1157C35.497 55.6451 32.5531 58.5891 32.5531 62.2078V65.8986H16.1477V53.1784C16.1477 48.0469 14.9408 43.5939 12.3495 39.1645C3.22638 23.9897 14.7539 3.88045 32.4851 4.10452C43.9767 4.09577 53.6495 12.3798 55.5114 23.6807L60.2659 39.742L53.3084 40.7653Z" fill="#E68238"/>
<path d="M32.485 8.0929C21.8314 8.0929 13.1641 16.7601 13.1641 27.4137C14.1354 53.0105 50.8386 53.0033 51.8061 27.4134C51.806 16.7602 43.1385 8.0929 32.485 8.0929ZM17.2653 27.4138C17.2653 22.6616 19.4553 18.4116 22.8785 15.6184C22.9002 15.6256 22.921 15.6325 22.9435 15.64C23.9507 15.9438 26.8222 16.9861 27.6909 17.7502C26.9518 18.3915 26.1575 18.5898 25.1011 18.8534C23.6607 19.213 21.8682 19.6604 20.242 21.429C19.4888 22.248 19.1391 23.2498 19.2303 24.3262C19.4354 26.7457 21.7911 28.7568 24.1864 30.6092C24.2732 30.6762 24.366 30.7483 24.4568 30.8187C24.3078 31.4518 24.153 32.4431 24.7413 33.4133C25.1885 34.1508 25.8868 34.5682 26.5335 34.8574C26.0281 35.5819 25.3326 36.3787 24.6905 37.1143C24.0814 37.8121 23.4609 38.5238 22.925 39.2465C19.4751 36.454 17.2653 32.1874 17.2653 27.4138ZM26.4512 41.3849C26.8492 40.8786 27.3184 40.3403 27.7802 39.8114C29.1334 38.2609 30.5327 36.658 31.0929 34.9067C31.4456 33.8038 31.0447 32.6811 30.047 31.9766C29.6062 31.6655 29.1063 31.4709 28.6653 31.2992C28.6349 31.2873 28.6024 31.2747 28.5686 31.2616C28.7246 30.5354 28.8463 29.3244 27.8655 28.3336C27.5953 28.0609 27.2179 27.7689 26.6952 27.3648C25.9808 26.8123 25.0919 26.1248 24.3598 25.3919C23.6833 24.7146 23.4431 24.2945 23.3596 24.1013C24.1257 23.3239 24.959 23.116 26.0944 22.8327C27.5074 22.48 29.2658 22.041 30.8963 20.3575C32.2015 19.0098 32.1112 17.6479 31.9413 16.9561C31.5037 15.1757 29.7279 13.952 27.59 13.002C30.8495 11.852 34.8402 11.9467 38.0275 13.2393C36.9487 14.4289 36.6788 16.0105 36.6494 17.2692C36.6239 17.696 36.5977 18.135 36.5171 18.4303C36.4424 18.4782 36.3484 18.5345 36.2765 18.5774C35.6923 18.9275 34.7145 19.5132 34.3532 20.736C33.9703 22.0306 34.6168 23.04 34.9665 23.584C34.8683 23.7788 34.7192 24.0216 34.6069 24.2046C34.1466 24.9546 33.5162 25.9819 33.5563 27.3006C33.6117 29.1181 35.0201 30.5991 36.3912 31.2608C36.9338 31.5226 37.4478 31.5942 37.8958 31.5807C37.8569 32.1421 37.7576 32.8022 37.6966 33.2086C37.44 34.9172 37.1748 36.6839 38.2688 37.9336C38.8359 38.5845 39.6783 38.936 40.6064 38.9188C41.31 38.9073 41.9878 38.8447 42.6439 38.7363C38.5786 42.5823 31.6616 43.7845 26.4512 41.3849ZM47.1473 31.4979C45.5728 33.4373 43.8279 34.4696 41.6226 34.744C41.6608 34.4295 41.7115 34.0919 41.7526 33.8177C42.2179 31.3695 42.33 27.6212 39.3249 27.2219C38.7448 27.1675 38.263 27.3116 37.9351 27.4163C37.8111 27.3184 37.7169 27.2116 37.6701 27.1382C37.7312 26.9552 37.9515 26.5964 38.1027 26.3499C38.5082 25.6891 39.0129 24.8666 39.1403 23.8095C39.2352 23.0207 38.9923 22.3719 38.729 21.8841C39.2248 21.5651 39.8161 21.1009 40.1758 20.329C40.6342 19.3452 40.6948 18.3295 40.7434 17.5135C40.7749 16.9865 40.8106 16.389 40.9541 16.1722C41.2063 15.7913 41.4874 15.5029 41.7137 15.3202C46.4583 18.7937 48.8986 25.6107 47.1473 31.4979Z" fill="#E68238"/>
</svg>
