<svg width="48" height="48" viewBox="0 0 48 48" fill="none" xmlns="http://www.w3.org/2000/svg">
<g clip-path="url(#clip0_147_15397)">
<path d="M35.6831 13.8773C35.6831 14.2693 35.5668 14.6526 35.349 14.9786C35.1311 15.3046 34.8215 15.5587 34.4593 15.7087C34.0971 15.8588 33.6985 15.898 33.3139 15.8216C32.9294 15.7451 32.5762 15.5563 32.2989 15.279C32.0217 15.0018 31.8329 14.6485 31.7564 14.264C31.6799 13.8795 31.7191 13.4809 31.8692 13.1186C32.0192 12.7564 32.2733 12.4468 32.5993 12.229C32.9253 12.0111 33.3086 11.8949 33.7007 11.8949C34.2264 11.8949 34.7307 12.1037 35.1024 12.4755C35.4742 12.8473 35.6831 13.3515 35.6831 13.8773ZM27.7535 17.842C27.3614 17.842 26.9781 17.9583 26.6521 18.1761C26.3261 18.394 26.072 18.7036 25.922 19.0658C25.772 19.428 25.7327 19.8266 25.8092 20.2112C25.8857 20.5957 26.0745 20.949 26.3517 21.2262C26.629 21.5034 26.9822 21.6922 27.3668 21.7687C27.7513 21.8452 28.1499 21.806 28.5121 21.6559C28.8744 21.5059 29.184 21.2518 29.4018 20.9258C29.6196 20.5998 29.7359 20.2165 29.7359 19.8244C29.7359 19.2987 29.527 18.7944 29.1553 18.4227C28.7835 18.0509 28.2793 17.842 27.7535 17.842ZM21.8063 23.7892C21.4142 23.7892 21.031 23.9055 20.705 24.1233C20.379 24.3411 20.1249 24.6507 19.9748 25.013C19.8248 25.3752 19.7855 25.7738 19.862 26.1584C19.9385 26.5429 20.1273 26.8961 20.4046 27.1734C20.6818 27.4506 21.035 27.6394 21.4196 27.7159C21.8041 27.7924 22.2027 27.7531 22.5649 27.6031C22.9272 27.4531 23.2368 27.199 23.4546 26.873C23.6724 26.547 23.7887 26.1637 23.7887 25.7716C23.7887 25.2458 23.5799 24.7416 23.2081 24.3698C22.8363 23.9981 22.3321 23.7892 21.8063 23.7892ZM47.3118 5.86442L47.1631 6.28271C44.1855 14.5453 41.3289 22.4015 35.6831 29.3796V29.7364C35.6796 32.7728 35.0431 35.7752 33.8144 38.5519C32.5856 41.3286 30.7914 43.8187 28.5465 45.8632C27.358 46.9596 25.8021 47.5713 24.1852 47.5779C22.5023 47.5727 20.89 46.901 19.7011 45.7099C18.5123 44.5188 17.8436 42.9053 17.8415 41.2224V38.9406C16.3787 38.4689 15.0471 37.6602 13.9541 36.5796L13.8767 36.5043L9.33112 41.0499C8.95724 41.411 8.45648 41.6108 7.9367 41.6063C7.41693 41.6018 6.91972 41.3933 6.55217 41.0258C6.18462 40.6582 5.97613 40.161 5.97161 39.6412C5.9671 39.1214 6.16691 38.6207 6.52802 38.2468L11.0736 33.7012L10.9963 33.6259C9.91507 32.5315 9.10452 31.1996 8.62936 29.7364H6.66679C4.89947 29.7348 3.20496 29.0322 1.9551 27.7827C0.705228 26.5332 0.0020995 24.8389 0 23.0716C0.00350661 21.3455 0.669064 19.6866 1.85948 18.4368C3.93208 16.3082 6.42055 14.6289 9.17007 13.5035C11.9196 12.378 14.8713 11.8305 17.8415 11.8949H18.1984C25.1764 6.25099 33.0267 3.39436 41.2853 0.418791L41.7135 0.266147C42.495 -0.0211387 43.3423 -0.0787388 44.1554 0.100153C44.9686 0.279044 45.7135 0.686951 46.3023 1.27568C46.891 1.8644 47.2989 2.60934 47.4778 3.42248C47.6567 4.23562 47.5991 5.08297 47.3118 5.86442ZM6.66679 25.7716H8.12781C8.27674 24.0249 8.88622 22.349 9.89412 20.9147C11.0004 19.3231 12.1978 17.7967 13.4803 16.3434C10.1549 17.0317 7.11472 18.7079 4.75774 21.1526C4.25632 21.6664 3.9723 22.3537 3.96479 23.0716C3.96583 23.7877 4.25091 24.4742 4.75746 24.9803C5.26402 25.4865 5.95068 25.7711 6.66679 25.7716ZM31.1236 34.2007C29.7017 35.4455 28.2112 36.6096 26.6592 37.6878C25.2238 38.6859 23.5491 39.2851 21.8063 39.4243V41.2224C21.8074 41.8565 22.0599 42.4643 22.5084 42.9124C22.957 43.3606 23.565 43.6126 24.1991 43.6131C24.8277 43.6039 25.4301 43.3599 25.8881 42.9292C28.4437 40.5898 30.2629 37.5569 31.1236 34.2007ZM43.4877 4.09018C43.4349 4.03142 43.3651 3.99066 43.2879 3.9736C43.2108 3.95653 43.1302 3.96403 43.0576 3.99503L42.6314 4.14965C33.0286 7.60893 24.7363 10.5984 17.5957 17.737C15.9577 19.4261 14.4669 21.2519 13.1393 23.1945C12.3318 24.3407 11.9552 25.7353 12.076 27.1321C12.1968 28.5289 12.8072 29.8382 13.7994 30.8287L16.7572 33.7825C17.7472 34.774 19.0556 35.3841 20.4515 35.5053C21.8475 35.6264 23.2414 35.2508 24.3874 34.4446C26.3289 33.1172 28.1534 31.6263 29.841 29.9882C36.9776 22.8515 39.971 14.5513 43.4322 4.94459L43.5829 4.52631C43.615 4.45285 43.6231 4.37115 43.606 4.29283C43.5889 4.21452 43.5475 4.1436 43.4877 4.09018Z" fill="#D95C00"/>
</g>
<defs>
<clipPath id="clip0_147_15397">
<rect width="47.5774" height="47.5774" fill="white"/>
</clipPath>
</defs>
</svg>
