<svg width="49" height="49" viewBox="0 0 49 49" fill="none" xmlns="http://www.w3.org/2000/svg">
<g clip-path="url(#clip0_147_15432)">
<path d="M24.5 0C19.6544 0 14.9175 1.4369 10.8885 4.12899C6.85954 6.82109 3.71931 10.6475 1.86496 15.1243C0.0106155 19.601 -0.474566 24.5272 0.470772 29.2797C1.41611 34.0322 3.74951 38.3977 7.1759 41.8241C10.6023 45.2505 14.9678 47.5839 19.7203 48.5292C24.4728 49.4746 29.399 48.9894 33.8758 47.135C38.3525 45.2807 42.1789 42.1405 44.871 38.1115C47.5631 34.0825 49 29.3456 49 24.5C48.993 18.0044 46.4095 11.7768 41.8164 7.18364C37.2233 2.59052 30.9957 0.00702554 24.5 0ZM44.9167 24.5C44.9191 28.5011 43.7385 32.4136 41.5234 35.7455L39.0898 33.3098C38.8989 33.1185 38.7917 32.8593 38.7917 32.5891V30.625C38.7917 29.0005 38.1464 27.4426 36.9977 26.294C35.849 25.1453 34.2911 24.5 32.6667 24.5H26.5417C26.0002 24.5 25.4809 24.2849 25.098 23.902C24.7151 23.5191 24.5 22.9998 24.5 22.4583V21.4375C24.5 21.1668 24.6076 20.9071 24.799 20.7157C24.9904 20.5242 25.2501 20.4167 25.5208 20.4167C26.8746 20.4167 28.1728 19.8789 29.13 18.9217C30.0873 17.9645 30.625 16.6662 30.625 15.3125V13.2708C30.625 13.0001 30.7326 12.7404 30.924 12.549C31.1154 12.3576 31.3751 12.25 31.6458 12.25H34.4613C35.8137 12.2462 37.11 11.7091 38.0689 10.7555L38.8386 9.98579C40.7643 11.8806 42.2935 14.1399 43.337 16.6318C44.3805 19.1237 44.9175 21.7984 44.9167 24.5ZM4.18339 26.4661L10.631 32.9137C11.1984 33.4848 11.8735 33.9374 12.6172 34.2455C13.3609 34.5536 14.1584 34.7109 14.9634 34.7083H20.4167C20.9582 34.7083 21.4775 34.9234 21.8604 35.3063C22.2432 35.6892 22.4583 36.2085 22.4583 36.75V44.8125C17.7629 44.3332 13.3778 42.2445 10.0469 38.9005C6.716 35.5566 4.64435 31.1634 4.18339 26.4661ZM26.5417 44.8125V36.75C26.5417 35.1255 25.8964 33.5676 24.7477 32.419C23.599 31.2703 22.0411 30.625 20.4167 30.625H14.9634C14.6949 30.6252 14.4291 30.5725 14.1811 30.4698C13.933 30.3672 13.7077 30.2166 13.5179 30.0268L4.41614 20.925C5.00041 17.6037 6.4001 14.4793 8.48962 11.8322C10.5791 9.18519 13.2931 7.09828 16.3881 5.75875C19.483 4.41923 22.8621 3.86899 26.2221 4.15741C29.5821 4.44583 32.818 5.56388 35.6393 7.41125L35.182 7.86858C34.9898 8.05811 34.7312 8.16507 34.4613 8.16667H31.6458C30.2921 8.16667 28.9939 8.70443 28.0367 9.66164C27.0794 10.6189 26.5417 11.9171 26.5417 13.2708V15.3125C26.5417 15.5832 26.4341 15.8429 26.2427 16.0343C26.0512 16.2258 25.7916 16.3333 25.5208 16.3333C24.1671 16.3333 22.8689 16.8711 21.9117 17.8283C20.9544 18.7855 20.4167 20.0838 20.4167 21.4375V22.4583C20.4167 24.0828 21.062 25.6407 22.2106 26.7894C23.3593 27.938 24.9172 28.5833 26.5417 28.5833H32.6667C33.2082 28.5833 33.7275 28.7984 34.1104 29.1813C34.4932 29.5642 34.7083 30.0835 34.7083 30.625V32.5891C34.7122 33.9415 35.2492 35.2378 36.2028 36.1967L38.9326 38.9264C35.6076 42.2629 31.2286 44.3431 26.5417 44.8125Z" fill="#D95C00"/>
</g>
<defs>
<clipPath id="clip0_147_15432">
<rect width="49" height="49" fill="white"/>
</clipPath>
</defs>
</svg>
