<?xml version="1.0" encoding="UTF-8"?>
<svg version="1.1" xmlns="http://www.w3.org/2000/svg" width="32" height="32">
<path d="M0 0 C2.46943529 3.70415293 2.46913089 5.62144505 2 10 C0.4375 12 0.4375 12 -2 13 C-5.75 12.6875 -5.75 12.6875 -9 12 C-9.33 12.99 -9.66 13.98 -10 15 C-10.66 15 -11.32 15 -12 15 C-11.773125 16.0725 -11.54625 17.145 -11.3125 18.25 C-11 22 -11 22 -12 24.4375 C-15.00274497 26.78339451 -17.30310867 26.3960955 -21 26 C-24 24 -24 24 -24.50390625 22.15234375 C-24.68437293 15.33070324 -22.56803771 11.01920192 -18 6 C-12.82890221 1.29371999 -7.14727276 -1.94925621 0 0 Z M-17.62109375 10.74609375 C-20.01978479 13.79712003 -20.95374544 15.49119988 -21.3125 19.4375 C-21.209375 20.283125 -21.10625 21.12875 -21 22 C-19.35 22.33 -17.7 22.66 -16 23 C-14.85790183 21.21771064 -14.85790183 21.21771064 -14 19 C-14.29777344 18.04287109 -14.29777344 18.04287109 -14.6015625 17.06640625 C-15 15 -15 15 -13.99609375 13.26171875 C-12.3879225 11.63742549 -10.93181524 10.22933697 -9 9 C-5.75 9.25 -5.75 9.25 -3 10 C-2.34 9.34 -1.68 8.68 -1 8 C-1.32041397 5.39719432 -1.32041397 5.39719432 -2 3 C-8.94615233 1.95807715 -13.14126552 5.92083298 -17.62109375 10.74609375 Z " fill="#FFFFFF" transform="translate(27,3)"/>
</svg>
