<svg width="26" height="26" viewBox="0 0 26 26" fill="none" xmlns="http://www.w3.org/2000/svg">
<g clip-path="url(#clip0_147_15798)">
<path d="M25.2553 12.6277C25.2553 5.65358 19.6018 0 12.6277 0C5.65359 0 0 5.65358 0 12.6277C0 18.9304 4.61773 24.1546 10.6546 25.102V16.2779H7.44834V12.6277H10.6546V9.84563C10.6546 6.68082 12.5399 4.93267 15.4243 4.93267C16.8059 4.93267 18.2509 5.17932 18.2509 5.17932V8.2869H16.6587C15.0901 8.2869 14.6007 9.26037 14.6007 10.259V12.6277H18.1029L17.543 16.2779H14.6007V25.102C20.6375 24.1546 25.2553 18.9304 25.2553 12.6277Z" fill="white"/>
</g>
<defs>
<clipPath id="clip0_147_15798">
<rect width="25.2553" height="25.2553" fill="white"/>
</clipPath>
</defs>
</svg>
