<svg width="26" height="26" viewBox="0 0 26 26" fill="none" xmlns="http://www.w3.org/2000/svg">
<g clip-path="url(#clip0_275_3067)">
<path d="M24.2106 22.7171H24.4495L23.9917 22.0245C24.2717 22.0245 24.4201 21.8466 24.4222 21.6288C24.4222 21.6204 24.4222 21.6109 24.4211 21.6025C24.4211 21.3057 24.2422 21.1636 23.8749 21.1636H23.2812V22.7171H23.5044V22.0403H23.7791L24.2106 22.7171ZM23.7633 21.8645H23.5044V21.3393H23.8328C24.0022 21.3393 24.1959 21.3667 24.1959 21.5888C24.1959 21.8435 24.0012 21.8645 23.7633 21.8645Z" fill="white"/>
<path d="M18.1988 20.0744H15.0339V15.1182C15.0339 13.9362 15.0129 12.4154 13.3878 12.4154C11.7396 12.4154 11.487 13.7026 11.487 15.0329V20.0744H8.32317V9.882H11.3617V11.2745H11.4038C12.0238 10.2156 13.1752 9.58309 14.4014 9.62835C17.6094 9.62835 18.1998 11.7386 18.1998 14.4825L18.1988 20.0744ZM4.75204 8.48849C3.73743 8.48849 2.91543 7.66649 2.91543 6.65188C2.91543 5.63727 3.73743 4.81526 4.75204 4.81526C5.76665 4.81526 6.58865 5.63727 6.58865 6.65188C6.58865 7.66649 5.76665 8.48849 4.75204 8.48849ZM6.33395 20.0744H3.16592V9.882H6.33395V20.0744ZM19.7765 1.87668H1.57559C0.7157 1.86721 0.010525 2.5566 0 3.41649V21.6921C0.010525 22.553 0.7157 23.2424 1.57559 23.233H19.7765C20.6385 23.2435 21.3468 22.5541 21.3584 21.6921V3.41544C21.3458 2.55344 20.6374 1.86405 19.7765 1.87563" fill="white"/>
<path d="M23.7897 20.4722C22.9856 20.4795 22.3393 21.1384 22.3477 21.9425C22.3551 22.7466 23.014 23.3929 23.8181 23.3844C24.6222 23.3771 25.2684 22.7182 25.26 21.9141C25.2526 21.1205 24.6106 20.4795 23.8181 20.4722H23.7897ZM23.8233 23.2171C23.1182 23.2287 22.5035 22.6677 22.4919 21.9625C22.4804 21.2573 23.0424 20.6764 23.7476 20.6648C24.4527 20.6532 25.0337 21.2152 25.0453 21.9204C25.0453 21.9278 25.0453 21.9341 25.0453 21.9415C25.06 22.6308 24.5127 23.2024 23.8233 23.2171H23.7907H23.8233Z" fill="white"/>
</g>
<defs>
<clipPath id="clip0_275_3067">
<rect width="25.26" height="25.26" fill="white"/>
</clipPath>
</defs>
</svg>
