<svg width="55" height="55" viewBox="0 0 55 55" fill="none" xmlns="http://www.w3.org/2000/svg">
<circle cx="27.5" cy="27.5" r="27.5" fill="#E68238"/>
<g clip-path="url(#clip0_470_3907)">
<path d="M43 24.8752C43 23.3639 41.9263 22.1027 40.5 21.8127V14.2502C40.5 13.5989 40.0012 13.0577 39.3538 13.0039C38.7113 12.9439 38.125 13.4027 38.0175 14.0439C37.5312 16.9602 33.4925 18.0002 29.875 18.0002H19.875C16.0838 18.0002 13 21.0839 13 24.8752C13 26.9389 13.915 28.7939 15.36 30.0552L19.2875 40.5339C19.63 41.4739 20.32 42.2264 21.2275 42.6489C21.7312 42.8839 22.2688 43.0014 22.8075 43.0014C23.2413 43.0014 23.675 42.9252 24.095 42.7727C25.035 42.4302 25.7875 41.7402 26.21 40.8327C26.6325 39.9239 26.6762 38.9064 26.3337 37.9677L24.08 31.7502H29.875C33.4925 31.7502 37.5312 32.7889 38.0175 35.7064C38.1187 36.3127 38.6438 36.7502 39.2488 36.7502C39.2838 36.7502 39.3188 36.7502 39.3525 36.7464C40.0013 36.6927 40.4988 36.1514 40.4988 35.5002V27.9377C41.925 27.6477 43 26.3877 43 24.8752ZM19.875 20.5002H21.745L21.7075 29.2502H19.8762C17.4637 29.2502 15.5012 27.2877 15.5012 24.8752C15.5012 22.4627 17.4625 20.5002 19.875 20.5002ZM23.985 38.8214C24.0988 39.1339 24.085 39.4739 23.9438 39.7764C23.8025 40.0789 23.5525 40.3089 23.2388 40.4239C22.9263 40.5389 22.5863 40.5239 22.2838 40.3827C21.9812 40.2414 21.7513 39.9914 21.6325 39.6677L18.6225 31.6364C19.0287 31.7114 19.4475 31.7514 19.875 31.7514H21.4213L23.985 38.8227V38.8214ZM38 31.3739C36.1413 30.0052 33.35 29.2502 29.875 29.2502H24.2063L24.2437 20.5002H29.8737C33.3487 20.5002 36.14 19.7452 37.9988 18.3764V31.3727L38 31.3739Z" fill="white"/>
</g>
<defs>
<clipPath id="clip0_470_3907">
<rect width="30" height="30" fill="white" transform="translate(13 13)"/>
</clipPath>
</defs>
</svg>
