<svg width="55" height="55" viewBox="0 0 55 55" fill="none" xmlns="http://www.w3.org/2000/svg">
<circle cx="27.5" cy="27.5" r="27.5" fill="#E7B954"/>
<path d="M25.5 15.5C25.5 14.1187 26.6188 13 28 13C29.3813 13 30.5 14.1187 30.5 15.5C30.5 16.4225 29.9938 17.22 29.25 17.6537V22.375C29.25 23.0662 28.6913 23.625 28 23.625C27.3088 23.625 26.75 23.0662 26.75 22.375V17.6537C26.0063 17.2213 25.5 16.4237 25.5 15.5ZM38.625 31.75C38.1863 31.75 37.78 31.8725 37.4213 32.0713L33.485 29.765C32.8875 29.4163 32.1225 29.6163 31.7738 30.2113C31.4263 30.8075 31.625 31.5737 32.22 31.9225L36.1275 34.2125C36.1275 34.225 36.1238 34.2375 36.1238 34.25C36.1238 35.6313 37.2425 36.75 38.6238 36.75C40.005 36.75 41.1238 35.6313 41.1238 34.25C41.1238 32.8687 40.0063 31.75 38.625 31.75ZM38.605 19.05L34.09 16.47C33.4913 16.125 32.7263 16.335 32.385 16.935C32.0425 17.5338 32.2513 18.2975 32.85 18.64L37.3563 21.215L28.0013 26.5612L18.6463 21.215L23.1525 18.64C23.7513 18.2975 23.96 17.5338 23.6175 16.935C23.2763 16.335 22.5113 16.125 21.9125 16.47L17.3975 19.05C15.8437 19.9388 14.8775 21.6012 14.8775 23.3912V28.6625C14.8775 29.3538 15.4363 29.9125 16.1275 29.9125C16.8188 29.9125 17.3775 29.3538 17.3775 28.6625V23.3912C17.3775 23.3837 17.38 23.3775 17.38 23.3713L26.7525 28.7263V39.4188L22.4 36.9313C21.8013 36.585 21.0363 36.7975 20.695 37.3962C20.3525 37.995 20.5613 38.76 21.16 39.1012L25.5225 41.5938C26.2875 42.0312 27.145 42.2488 28.0025 42.2488C28.86 42.2488 29.7175 42.03 30.4825 41.5938L34.845 39.1012C35.4438 38.76 35.6525 37.995 35.31 37.3962C34.9675 36.7975 34.2038 36.585 33.605 36.9313L29.2525 39.4188V28.7263L38.625 23.3713C38.625 23.3787 38.6275 23.385 38.6275 23.3912V28.8012C38.6275 29.4925 39.1863 30.0513 39.8775 30.0513C40.5688 30.0513 41.1275 29.4925 41.1275 28.8012V23.3912C41.1275 21.6012 40.1625 19.9388 38.6075 19.05H38.605ZM23.7675 31.9112C24.365 31.5637 24.5663 30.7975 24.2188 30.2025C23.8725 29.605 23.105 29.4037 22.51 29.7512L18.5513 32.0575C18.1988 31.8687 17.8025 31.7513 17.375 31.7513C15.9938 31.7513 14.875 32.87 14.875 34.2512C14.875 35.6325 15.9938 36.7512 17.375 36.7512C18.7563 36.7512 19.875 35.6325 19.875 34.2512C19.875 34.2288 19.8688 34.2063 19.8688 34.1838L23.7688 31.9125L23.7675 31.9112Z" fill="white"/>
</svg>
