<svg width="40" height="40" viewBox="0 0 40 40" fill="none" xmlns="http://www.w3.org/2000/svg">
<g clip-path="url(#clip0_489_4808)">
<path d="M35.8333 28.2567C35.8217 27.1283 35.3683 26.0767 34.5767 25.3167L31.4517 22.2017C31.5883 21.4883 31.6667 20.7533 31.6667 20C31.6667 19.2467 31.5883 18.5133 31.4517 17.8L34.5383 14.7233C36.2233 13.17 36.26 10.34 34.6133 8.75667L31.245 5.38833C29.6833 3.73333 26.8417 3.78833 25.3183 5.42333L22.205 8.54833C21.49 8.41167 20.755 8.33333 20.0017 8.33333C19.2483 8.33333 18.515 8.41167 17.8017 8.54833L14.725 5.46333C13.1767 3.76667 10.3483 3.77167 8.75833 5.38833L5.39 8.75667C3.72167 10.3533 3.795 13.1517 5.425 14.6833L8.55 17.7983C8.41333 18.5117 8.335 19.2467 8.335 20C8.335 20.7533 8.41333 21.4867 8.55 22.2L5.46333 25.2767C3.77833 26.83 3.74167 29.66 5.38833 31.2433L8.75667 34.6117C10.3517 36.2783 13.15 36.2083 14.6833 34.5767L17.7967 31.4517C18.5117 31.5883 19.2467 31.6667 20 31.6667C20.7533 31.6667 21.4867 31.5883 22.2 31.4517L25.2767 34.5367C26.8267 36.2233 29.66 36.26 31.2433 34.6117L34.6117 31.2433C35.4333 30.4217 35.8683 29.3483 35.8333 28.2567ZM27.6983 7.755C27.9733 7.425 28.5983 7.42833 28.8867 7.745L32.255 11.1133C32.5967 11.4583 32.5817 11.9983 32.205 12.3417L30.1967 14.345C29.1367 12.4417 27.56 10.865 25.6567 9.805L27.6983 7.755ZM7.75333 12.3C7.42333 12.0367 7.42667 11.3567 7.74333 11.1133L11.1117 7.745C11.465 7.40833 11.995 7.41667 12.34 7.795L14.3433 9.80333C12.44 10.8633 10.8633 12.44 9.80333 14.3433L7.75333 12.3ZM12.3017 32.245C12.025 32.5733 11.4 32.5767 11.1133 32.255L7.745 28.8867C7.40333 28.5417 7.41833 28.0017 7.795 27.6583L9.80333 25.655C10.8633 27.5583 12.44 29.135 14.3433 30.195L12.3017 32.245ZM11.6667 20C11.6667 15.405 15.405 11.6667 20 11.6667C24.595 11.6667 28.3333 15.405 28.3333 20C28.3333 24.595 24.595 28.3333 20 28.3333C15.405 28.3333 11.6667 24.595 11.6667 20ZM32.2567 28.8867L28.8883 32.255C28.5567 32.61 28.0017 32.5767 27.66 32.205L25.6567 30.1967C27.56 29.1367 29.1367 27.56 30.1967 25.6567L32.2467 27.7C32.5767 27.9633 32.5733 28.6433 32.2567 28.8867ZM33.3333 3.33333C33.3333 1.49167 34.825 0 36.6667 0C38.5083 0 40 1.49167 40 3.33333C40 5.175 38.5083 6.66667 36.6667 6.66667C34.825 6.66667 33.3333 5.175 33.3333 3.33333ZM0 3.33333C0 1.49167 1.49167 0 3.33333 0C5.175 0 6.66667 1.49167 6.66667 3.33333C6.66667 5.175 5.175 6.66667 3.33333 6.66667C1.49167 6.66667 0 5.175 0 3.33333ZM40 36.6667C40 38.5083 38.5083 40 36.6667 40C34.825 40 33.3333 38.5083 33.3333 36.6667C33.3333 34.825 34.825 33.3333 36.6667 33.3333C38.5083 33.3333 40 34.825 40 36.6667ZM6.66667 36.6667C6.66667 38.5083 5.175 40 3.33333 40C1.49167 40 0 38.5083 0 36.6667C0 34.825 1.49167 33.3333 3.33333 33.3333C5.175 33.3333 6.66667 34.825 6.66667 36.6667Z" fill="#3C94C5"/>
</g>
<defs>
<clipPath id="clip0_489_4808">
<rect width="40" height="40" fill="white"/>
</clipPath>
</defs>
</svg>
