<svg width="70" height="70" viewBox="0 0 70 70" fill="none" xmlns="http://www.w3.org/2000/svg">
<path d="M4.44439 34.0357C5.03118 34.1156 5.63397 33.9336 6.07995 33.5361L9.73483 30.2881C11.3123 28.8672 9.95959 26.299 7.92085 26.7551C11.8735 13.5805 24.7296 5.06559 38.77 6.95394C50.5952 8.54452 60.2034 17.4552 62.6793 29.127C62.9141 30.2348 64.0028 30.9425 65.1109 30.7077C66.2189 30.4726 66.9265 29.3839 66.6915 28.2761C65.2971 21.7024 61.9557 15.8126 57.0286 11.2431C52.1013 6.67367 45.9767 3.78496 39.3168 2.88904C23.5987 0.471324 7.47119 11.2796 3.68629 26.6711C3.04344 25.8176 1.84155 25.5943 0.932515 26.1861C-0.0167172 26.8037 -0.285641 28.0741 0.33205 29.0234L2.99887 33.1218C3.32467 33.6223 3.8524 33.956 4.44439 34.0357Z" fill="#E68238"/>
<path d="M34.9999 13.2604C23.0134 13.2604 13.2617 23.0121 13.2617 34.9985C14.3546 63.7975 55.6495 63.7897 56.738 34.9983C56.738 23.0121 46.9863 13.2604 34.9999 13.2604ZM17.3633 34.9985C17.3633 29.4348 19.9537 24.4654 23.9909 21.2306C25.0357 21.5788 26.448 22.0311 27.8964 22.7013C29.1448 23.2837 29.7152 23.7311 29.963 23.9758C28.9978 24.9327 27.9589 25.192 26.6521 25.5182C24.4209 25.9043 19.7993 27.9308 20.176 31.4543C20.3998 34.0966 23.0351 36.3412 25.7152 38.4139C25.8619 38.5274 26.0237 38.6525 26.1705 38.7678C25.9951 39.4672 25.7473 40.5836 26.4175 41.6887C26.9602 42.5836 27.8454 43.0295 28.6466 43.3562C28.0504 44.2751 27.1527 45.3035 26.3306 46.2452C25.5725 47.1138 24.7987 48.0014 24.157 48.8986C20.0245 45.668 17.3633 40.6383 17.3633 34.9985ZM34.9999 52.6351C32.3868 52.6351 29.9051 52.0633 27.6721 51.0391C29.4627 48.6788 32.2792 46.1725 33.1397 43.4526C33.5023 42.3191 33.0869 41.1626 32.0554 40.4346C31.5816 40.1002 31.053 39.8944 30.5416 39.6953C30.4442 39.6575 30.3215 39.6096 30.2003 39.5601C30.3886 38.7946 30.6602 37.391 29.5299 36.2492C29.2354 35.9516 28.8113 35.6236 28.2243 35.1697C27.2594 34.4694 24.4447 32.1764 24.2698 31.1506C24.2711 31.1492 24.2724 31.1477 24.2737 31.1464C25.2366 30.0992 26.2471 29.847 27.6454 29.4978C29.2207 29.1046 31.1811 28.6152 32.9827 26.755C34.3747 25.3177 34.281 23.8765 34.1014 23.1456C33.5857 21.047 31.2996 19.6402 28.6418 18.5484C32.69 16.9168 37.8011 16.988 41.7927 18.7235C41.4428 19.1181 41.1745 19.4901 40.9952 19.7608C40.1801 20.9918 40.0986 22.3555 40.0333 23.4512C39.9991 24.0247 39.9666 24.5701 39.8404 24.9396C39.7426 25.008 39.5836 25.1032 39.4693 25.1717C38.8393 25.5491 37.7848 26.1808 37.4045 27.4674C37.0043 28.8204 37.6991 29.9009 38.0723 30.4814C38.0971 30.5198 38.1262 30.5652 38.1548 30.6104C38.0476 30.8638 37.8465 31.1915 37.6631 31.4903C35.5916 34.4525 36.4056 37.456 39.5775 39.1256C40.2721 39.4607 40.9285 39.4993 41.4687 39.4375C41.4463 40.1713 41.3019 41.1329 41.2246 41.647C40.9288 43.6167 40.6495 45.4774 41.809 46.8018C42.399 47.4792 43.2806 47.845 44.2531 47.8268C45.3915 47.8082 46.4721 47.6739 47.5004 47.4274C44.3041 50.6419 39.8806 52.6351 34.9999 52.6351ZM51.9759 39.7856C50.0353 42.1962 47.8739 43.426 45.0924 43.6779C45.135 43.2261 45.2174 42.6782 45.2808 42.2558C45.5658 40.3568 45.8892 38.2046 44.9324 36.5243C44.2755 35.3707 43.2958 35.1147 42.7702 35.0651C42.1401 35.0054 41.6081 35.1757 41.2562 35.2884C41.227 35.2977 41.1943 35.3082 41.1619 35.3183C40.8525 35.1141 40.6447 34.8405 40.608 34.7192C40.6201 34.5139 40.9433 33.9871 41.1592 33.6352C41.6068 32.9057 42.164 31.9977 42.3016 30.8556C42.4157 29.9082 42.0551 29.1387 41.7316 28.5968C43.669 27.5515 44.0458 25.7204 44.1277 23.6951C44.1675 23.0271 44.2088 22.3364 44.4152 22.0245C44.7767 21.4785 45.1988 21.0708 45.5209 20.8519C51.1465 24.8631 54.0562 32.8765 51.9759 39.7856Z" fill="#E68238"/>
<path d="M69.6671 39.4136L67.0003 35.3154C66.6746 34.8149 66.1468 34.481 65.5548 34.4014C64.9628 34.322 64.3656 34.5042 63.9192 34.901L60.2644 38.149C59.4178 38.9014 59.3414 40.1975 60.0936 41.0441C60.7215 41.7507 61.7276 41.9187 62.5358 41.5181C59.5545 55.3232 45.2311 65.2111 31.2253 63.0429C18.7196 61.3608 8.74944 51.4604 6.9799 38.9667C6.82104 37.8454 5.78321 37.0652 4.66185 37.2238C3.54035 37.3827 2.7601 38.4205 2.91897 39.5419C4.71941 53.6294 16.5789 65.4061 30.6786 67.1078C46.8355 69.6063 63.348 58.1139 66.6116 42.0847C67.2966 42.677 68.3023 42.7518 69.0667 42.251C70.0162 41.6334 70.285 40.3632 69.6671 39.4136Z" fill="#E68238"/>
</svg>
