<svg width="55" height="55" viewBox="0 0 55 55" fill="none" xmlns="http://www.w3.org/2000/svg">
<circle cx="27.5" cy="27.5" r="27.5" fill="#7D876B"/>
<g clip-path="url(#clip0_470_3969)">
<path d="M21.8225 19.2025C22.8713 19.2025 23.8162 19.635 24.4962 20.3287C22.84 21.4537 21.7487 23.3525 21.7487 25.5013C21.7487 25.9113 21.7937 26.31 21.87 26.6987C21.8538 26.6987 21.8387 26.7038 21.8225 26.7038C19.7513 26.7038 18.0725 25.025 18.0725 22.9537C18.0725 20.8825 19.7513 19.2025 21.8225 19.2025ZM34.25 19.25C33.1987 19.25 32.2512 19.6863 31.57 20.3825C33.1863 21.5138 34.25 23.3813 34.25 25.5C34.25 25.9237 34.2062 26.3375 34.125 26.7375C34.1675 26.7387 34.2075 26.75 34.25 26.75C36.3212 26.75 38 25.0712 38 23C38 20.9288 36.3212 19.25 34.25 19.25ZM28 29.25C30.0712 29.25 31.75 27.5712 31.75 25.5C31.75 23.4288 30.0712 21.75 28 21.75C25.9288 21.75 24.25 23.4288 24.25 25.5C24.25 27.5712 25.9288 29.25 28 29.25ZM28 31.75C25.8075 31.75 23.8312 33.0788 23.0812 35.0575C22.8362 35.7038 23.1613 36.425 23.8075 36.67C24.4513 36.9138 25.175 36.59 25.42 35.9437C25.8038 34.93 26.8413 34.2512 28.0013 34.2512C29.1613 34.2512 30.1987 34.9312 30.5825 35.9437C30.7712 36.4425 31.2475 36.7512 31.7513 36.7512C31.8988 36.7512 32.0487 36.725 32.1937 36.6712C32.8387 36.4263 33.1637 35.705 32.92 35.0588C32.17 33.0812 30.1938 31.7513 28.0013 31.7513L28 31.75ZM32.625 29.4963C31.9662 29.7037 31.6 30.405 31.8075 31.0638C32.015 31.7213 32.7188 32.0863 33.375 31.8812C33.6537 31.7937 33.9475 31.75 34.25 31.75C35.41 31.75 36.4475 32.43 36.8313 33.4425C37.02 33.9412 37.4963 34.25 38 34.25C38.1475 34.25 38.2975 34.2238 38.4425 34.17C39.0875 33.925 39.4125 33.2038 39.1687 32.5575C38.4187 30.58 36.4425 29.25 34.25 29.25C33.6925 29.25 33.1462 29.3325 32.625 29.4963ZM21.75 29.25C19.5575 29.25 17.5813 30.5788 16.8313 32.5575C16.5863 33.2038 16.9112 33.925 17.5575 34.17C17.7037 34.225 17.8525 34.25 18 34.25C18.5037 34.25 18.98 33.9425 19.1687 33.4425C19.5525 32.4288 20.59 31.75 21.75 31.75C22.0525 31.75 22.3475 31.7937 22.625 31.8812C23.2812 32.0863 23.985 31.7213 24.1925 31.0638C24.4 30.405 24.0338 29.7037 23.375 29.4963C22.8538 29.3325 22.3075 29.25 21.75 29.25ZM21.75 40.5H19.25C17.1825 40.5 15.5 38.8175 15.5 36.75V34.25C15.5 33.5588 14.94 33 14.25 33C13.56 33 13 33.5588 13 34.25V36.75C13 40.1963 15.8038 43 19.25 43H21.75C22.44 43 23 42.4412 23 41.75C23 41.0588 22.44 40.5 21.75 40.5ZM41.75 33C41.06 33 40.5 33.5588 40.5 34.25V36.75C40.5 38.8175 38.8175 40.5 36.75 40.5H34.25C33.56 40.5 33 41.0588 33 41.75C33 42.4412 33.56 43 34.25 43H36.75C40.1963 43 43 40.1963 43 36.75V34.25C43 33.5588 42.44 33 41.75 33ZM36.75 13H34.25C33.56 13 33 13.5588 33 14.25C33 14.9412 33.56 15.5 34.25 15.5H36.75C38.8175 15.5 40.5 17.1825 40.5 19.25V21.75C40.5 22.4412 41.06 23 41.75 23C42.44 23 43 22.4412 43 21.75V19.25C43 15.8038 40.1963 13 36.75 13ZM14.25 23C14.94 23 15.5 22.4412 15.5 21.75V19.25C15.5 17.1825 17.1825 15.5 19.25 15.5H21.75C22.44 15.5 23 14.9412 23 14.25C23 13.5588 22.44 13 21.75 13H19.25C15.8038 13 13 15.8038 13 19.25V21.75C13 22.4412 13.56 23 14.25 23Z" fill="white"/>
</g>
<defs>
<clipPath id="clip0_470_3969">
<rect width="30" height="30" fill="white" transform="translate(13 13)"/>
</clipPath>
</defs>
</svg>
