<svg width="40" height="40" viewBox="0 0 40 40" fill="none" xmlns="http://www.w3.org/2000/svg">
<g clip-path="url(#clip0_489_4805)">
<path d="M3.33429 4.16667C3.33429 1.865 5.19929 0 7.50096 0C9.80262 0 11.6676 1.865 11.6676 4.16667C11.6676 6.46833 9.80262 8.33333 7.50096 8.33333C5.19929 8.33333 3.33429 6.46833 3.33429 4.16667ZM23.3343 13.3333C24.2543 13.3333 25.001 12.5883 25.001 11.6667C25.001 10.745 24.2543 10 23.3343 10H6.66762C2.99096 10 0.000956863 12.99 0.000956863 16.6667V21.6667C0.000956863 22.5883 0.747624 23.3333 1.66762 23.3333C2.58762 23.3333 3.33429 22.5883 3.33429 21.6667V16.6667C3.33429 14.8283 4.82929 13.3333 6.66762 13.3333H10.001V21.6667C10.001 22.5883 10.7476 23.3333 11.6676 23.3333C12.5876 23.3333 13.3343 22.5883 13.3343 21.6667V13.3333H23.3343ZM32.501 0H16.6676C15.7476 0 15.001 0.745 15.001 1.66667C15.001 2.58833 15.7476 3.33333 16.6676 3.33333H32.501C34.7976 3.33333 36.6676 5.20167 36.6676 7.5V15.8333C36.6676 18.1317 34.7976 20 32.501 20H31.6676V18.3333C31.6676 17.4117 30.921 16.6667 30.001 16.6667H26.6676C25.7476 16.6667 25.001 17.4117 25.001 18.3333V20H18.3343C17.4143 20 16.6676 20.745 16.6676 21.6667C16.6676 22.5883 17.4143 23.3333 18.3343 23.3333H32.501C36.636 23.3333 40.001 19.9683 40.001 15.8333V7.5C40.001 3.365 36.636 0 32.501 0ZM34.1676 35C32.0726 35 30.1126 35.7967 28.7926 37.185C28.1576 37.8517 28.1843 38.9083 28.8526 39.5417C29.5193 40.1783 30.5743 40.1483 31.2093 39.4833C32.576 38.045 35.7593 38.045 37.1276 39.4833C37.4543 39.8267 37.8943 40.0017 38.336 40.0017C38.7493 40.0017 39.1626 39.85 39.4843 39.5433C40.151 38.91 40.1793 37.8533 39.5443 37.1867C38.2243 35.7983 36.266 35.0017 34.1693 35.0017L34.1676 35ZM20.001 35C17.906 35 15.946 35.7967 14.626 37.185C13.991 37.8517 14.0176 38.9083 14.686 39.5417C15.3526 40.1783 16.4093 40.1483 17.0426 39.4833C18.4093 38.045 21.5926 38.045 22.961 39.4833C23.2876 39.8267 23.7276 40.0017 24.1693 40.0017C24.5826 40.0017 24.996 39.85 25.3176 39.5433C25.9843 38.91 26.0126 37.8533 25.3776 37.1867C24.0576 35.7983 22.0993 35.0017 20.0026 35.0017L20.001 35ZM5.83429 35C3.73929 35 1.77929 35.7967 0.45929 37.185C-0.17571 37.8517 -0.149043 38.9083 0.51929 39.5417C1.18596 40.1783 2.24262 40.1483 2.87596 39.4833C4.24262 38.045 7.42596 38.045 8.79429 39.4833C9.12096 39.8267 9.56096 40.0017 10.0026 40.0017C10.416 40.0017 10.8293 39.85 11.151 39.5433C11.8176 38.91 11.846 37.8533 11.211 37.1867C9.89096 35.7983 7.93262 35.0017 5.83596 35.0017L5.83429 35ZM9.16762 30C9.16762 28.1583 7.67596 26.6667 5.83429 26.6667C3.99262 26.6667 2.50096 28.1583 2.50096 30C2.50096 31.8417 3.99262 33.3333 5.83429 33.3333C7.67596 33.3333 9.16762 31.8417 9.16762 30ZM23.3343 30C23.3343 28.1583 21.8426 26.6667 20.001 26.6667C18.1593 26.6667 16.6676 28.1583 16.6676 30C16.6676 31.8417 18.1593 33.3333 20.001 33.3333C21.8426 33.3333 23.3343 31.8417 23.3343 30ZM37.501 30C37.501 28.1583 36.0093 26.6667 34.1676 26.6667C32.326 26.6667 30.8343 28.1583 30.8343 30C30.8343 31.8417 32.326 33.3333 34.1676 33.3333C36.0093 33.3333 37.501 31.8417 37.501 30Z" fill="#3C94C5"/>
</g>
<defs>
<clipPath id="clip0_489_4805">
<rect width="40" height="40" fill="white"/>
</clipPath>
</defs>
</svg>
